<svg xmlns="http://www.w3.org/2000/svg" viewBox="0 0 2858.13 3969.04"><defs><style>.cls-1,.cls-20,.cls-34{fill:#fff;}.cls-1{stroke:#231f20;}.cls-1,.cls-39,.cls-41,.cls-42,.cls-43,.cls-55,.cls-58{stroke-miterlimit:10;}.cls-2{font-size:45.91px;}.cls-2,.cls-3,.cls-66{fill:#231f20;}.cls-2,.cls-3,.cls-54,.cls-56,.cls-57{font-family:DDCHardware-Condensed, DDC Hardware;}.cls-3{font-size:31.51px;}.cls-4{letter-spacing:-0.01em;}.cls-5{letter-spacing:0em;}.cls-10,.cls-39,.cls-41,.cls-6,.cls-7,.cls-8,.cls-9{fill:#96ffb0;}.cls-13,.cls-33,.cls-7{opacity:0.8;}.cls-14,.cls-8{opacity:0.6;}.cls-15,.cls-9{opacity:0.4;}.cls-10,.cls-16{opacity:0.2;}.cls-11{font-size:16.45px;}.cls-11,.cls-20,.cls-34,.cls-35,.cls-44{font-family:MyriadPro-Regular, Myriad Pro;}.cls-12,.cls-13,.cls-14,.cls-15,.cls-16,.cls-43,.cls-53{fill:#6c9;}.cls-17{letter-spacing:-0.01em;}.cls-18{letter-spacing:0em;}.cls-19{font-size:62.46px;}.cls-19,.cls-33,.cls-35,.cls-54,.cls-56,.cls-57{fill:#333;}.cls-19,.cls-53{font-family:DDCHardware-Regular, DDC Hardware;}.cls-20{font-size:177.32px;}.cls-21{letter-spacing:0.01em;}.cls-22{letter-spacing:0em;}.cls-23{letter-spacing:-0.01em;}.cls-24{letter-spacing:0em;}.cls-25{letter-spacing:0.01em;}.cls-26{letter-spacing:0em;}.cls-27{letter-spacing:-0.02em;}.cls-28{letter-spacing:-0.01em;}.cls-29{letter-spacing:0.01em;}.cls-30{letter-spacing:-0.01em;}.cls-31{letter-spacing:0.01em;}.cls-32{letter-spacing:0em;}.cls-34,.cls-35,.cls-44{font-size:21px;}.cls-36{letter-spacing:-0.01em;}.cls-37{letter-spacing:-0.04em;}.cls-38{letter-spacing:0.01em;}.cls-39{stroke:#9f9;}.cls-40,.cls-42,.cls-55,.cls-58{fill:none;}.cls-41,.cls-42,.cls-43{stroke:#96ffb0;}.cls-45{letter-spacing:0em;}.cls-46{letter-spacing:0em;}.cls-47{letter-spacing:-0.01em;}.cls-48{letter-spacing:-0.01em;}.cls-49{letter-spacing:-0.01em;}.cls-50{letter-spacing:0em;}.cls-51{letter-spacing:-0.01em;}.cls-52{letter-spacing:-0.01em;}.cls-53{font-size:95px;}.cls-54{font-size:25.6px;}.cls-55{stroke:#333;}.cls-56{font-size:12px;}.cls-57{font-size:53.33px;}.cls-58{stroke:#000;}.cls-59{letter-spacing:-0.01em;}.cls-60{letter-spacing:0.01em;}.cls-61{letter-spacing:-0.01em;}.cls-62{letter-spacing:0em;}.cls-63{letter-spacing:0em;}.cls-64{letter-spacing:-0.05em;}.cls-65{letter-spacing:-0.01em;}</style></defs><title>projectPoly</title><g id="Template"><rect class="cls-1" x="0.5" y="0.5" width="414" height="736"/><text class="cls-2" transform="translate(14.03 228.85)">iPhone 6 Screen Size</text><text class="cls-3" transform="translate(101.1 306.51)">414 x 736 <tspan class="cls-4" x="127.93" y="0">p</tspan><tspan class="cls-5" x="143.6" y="0">oints</tspan></text><rect class="cls-6" x="507.24" y="38.96" width="116.81" height="48.99"/><rect class="cls-7" x="507.24" y="87.95" width="116.81" height="48.99"/><rect class="cls-8" x="507.24" y="136.94" width="116.81" height="48.99"/><rect class="cls-9" x="507.24" y="185.92" width="116.81" height="48.99"/><rect class="cls-10" x="507.24" y="234.91" width="116.81" height="48.99"/><text class="cls-11" transform="translate(532.53 70.4)">#96FFB0</text><rect class="cls-12" x="624.05" y="38.96" width="116.81" height="48.99"/><rect class="cls-13" x="624.05" y="87.95" width="116.81" height="48.99"/><rect class="cls-14" x="624.05" y="136.94" width="116.81" height="48.99"/><rect class="cls-15" x="624.05" y="185.92" width="116.81" height="48.99"/><rect class="cls-16" x="624.05" y="234.91" width="116.81" height="48.99"/><text class="cls-11" transform="translate(649.34 70.4)">#66<tspan class="cls-17" x="25.05" y="0">c</tspan><tspan class="cls-18" x="32.32" y="0">c99</tspan></text><text class="cls-19" transform="translate(33.24 845.79)">Scratch Pad</text><rect class="cls-1" x="1338.38" y="0.5" width="99.57" height="99.57"/><text class="cls-20" transform="translate(1730.94 343.9)"><tspan class="cls-21">I</tspan><tspan class="cls-22" x="44.15" y="0">n</tspan><tspan x="141.85" y="0">t</tspan><tspan class="cls-23" x="200.54" y="0">r</tspan><tspan x="256.75" y="0">o</tspan></text><text class="cls-20" transform="translate(1730.94 1139.98)"><tspan class="cls-24">A</tspan><tspan x="107.99" y="0">bout </tspan><tspan class="cls-25" x="500.21" y="0">M</tspan><tspan class="cls-26" x="643.84" y="0">e</tspan></text><text class="cls-20" transform="translate(1730.94 1936.07)"><tspan class="cls-27">P</tspan><tspan class="cls-28" x="91.5" y="0">r</tspan><tspan x="147.71" y="0">oje</tspan><tspan class="cls-29" x="376.98" y="0">c</tspan><tspan x="458.72" y="0">ts</tspan></text><text class="cls-20" transform="translate(1730.94 2732.15)"><tspan class="cls-30">C</tspan><tspan x="100.89" y="0">o</tspan><tspan class="cls-22" x="198.24" y="0">n</tspan><tspan x="295.94" y="0">ta</tspan><tspan class="cls-29" x="440.1" y="0">c</tspan><tspan x="521.84" y="0">t</tspan></text><text class="cls-20" transform="translate(1730.94 3528.23)">E<tspan class="cls-31" x="87.24" y="0">x</tspan><tspan x="171.64" y="0">t</tspan><tspan class="cls-32" x="230.33" y="0">r</tspan><tspan x="287.43" y="0">a </tspan><tspan class="cls-21" x="410.49" y="0">I</tspan><tspan x="454.64" y="0">f Needed</tspan></text><rect class="cls-33" x="507.24" y="333.55" width="116.81" height="48.99"/><text class="cls-34" transform="translate(527.92 364.45)">#333333</text><text class="cls-35" transform="translate(640.46 350.5)">USE #333 FOR MORE<tspan x="0" y="25.2">REA</tspan><tspan class="cls-36" x="34.48" y="25.2">D</tspan><tspan x="48.17" y="25.2">ABLE</tspan><tspan class="cls-37" x="92.65" y="25.2"> </tspan><tspan x="96.24" y="25.2">TE</tspan><tspan class="cls-38" x="117.01" y="25.2">X</tspan><tspan x="129.17" y="25.2">T</tspan></text><polygon class="cls-6" points="223.28 1282.89 223.28 1302.91 294.56 1268.98 294.56 1248.95 223.28 1282.89"/><polygon class="cls-12" points="223.28 1282.89 223.28 1302.91 152.01 1268.98 152.01 1248.95 223.28 1282.89"/><polygon class="cls-6" points="223.28 1249.86 223.28 1269.89 294.56 1235.95 294.56 1215.93 223.28 1249.86"/><polygon class="cls-12" points="223.28 1249.86 223.28 1269.89 152.01 1235.95 152.01 1215.93 223.28 1249.86"/><polygon class="cls-6" points="223.28 1216.84 223.28 1236.87 294.56 1202.93 294.56 1182.91 223.28 1216.84"/><polygon class="cls-12" points="223.28 1216.84 223.28 1236.87 152.01 1202.93 152.01 1182.91 223.28 1216.84"/><polygon class="cls-6" points="1365.98 679.07 1365.98 689.08 1401.62 672.11 1401.62 662.1 1365.98 679.07"/><polygon class="cls-12" points="1365.98 679.07 1365.98 689.08 1330.34 672.11 1330.34 662.1 1365.98 679.07"/><polygon class="cls-6" points="1365.98 662.55 1365.98 672.57 1401.62 655.6 1401.62 645.59 1365.98 662.55"/><polygon class="cls-12" points="1365.98 662.55 1365.98 672.57 1330.34 655.6 1330.34 645.59 1365.98 662.55"/><polygon class="cls-6" points="1365.98 646.04 1365.98 656.06 1401.62 639.09 1401.62 629.08 1365.98 646.04"/><polygon class="cls-12" points="1365.98 646.04 1365.98 656.06 1330.34 639.09 1330.34 629.08 1365.98 646.04"/><polygon class="cls-6" points="1365.98 1474.72 1365.98 1484.73 1401.62 1467.76 1401.62 1457.75 1365.98 1474.72"/><polygon class="cls-12" points="1365.98 1474.72 1365.98 1484.73 1330.34 1467.76 1330.34 1457.75 1365.98 1474.72"/><polygon class="cls-6" points="1365.98 1458.21 1365.98 1468.22 1401.62 1451.25 1401.62 1441.24 1365.98 1458.21"/><polygon class="cls-12" points="1365.98 1458.21 1365.98 1468.22 1330.34 1451.25 1330.34 1441.24 1365.98 1458.21"/><polygon class="cls-6" points="1365.98 1441.69 1365.98 1451.71 1401.62 1434.74 1401.62 1424.73 1365.98 1441.69"/><polygon class="cls-12" points="1365.98 1441.69 1365.98 1451.71 1330.34 1434.74 1330.34 1424.73 1365.98 1441.69"/><polygon class="cls-6" points="1365.98 2249.72 1365.98 2259.73 1401.62 2242.76 1401.62 2232.75 1365.98 2249.72"/><polygon class="cls-12" points="1365.98 2249.72 1365.98 2259.73 1330.34 2242.76 1330.34 2232.75 1365.98 2249.72"/><polygon class="cls-6" points="1365.98 2233.21 1365.98 2243.22 1401.62 2226.25 1401.62 2216.24 1365.98 2233.21"/><polygon class="cls-12" points="1365.98 2233.21 1365.98 2243.22 1330.34 2226.25 1330.34 2216.24 1365.98 2233.21"/><polygon class="cls-6" points="1365.98 2216.7 1365.98 2226.71 1401.62 2209.74 1401.62 2199.73 1365.98 2216.7"/><polygon class="cls-12" points="1365.98 2216.7 1365.98 2226.71 1330.34 2209.74 1330.34 2199.73 1365.98 2216.7"/><polygon class="cls-6" points="1365.98 3031.52 1365.98 3041.53 1401.62 3024.57 1401.62 3014.55 1365.98 3031.52"/><polygon class="cls-12" points="1365.98 3031.52 1365.98 3041.53 1330.34 3024.57 1330.34 3014.55 1365.98 3031.52"/><polygon class="cls-6" points="1365.98 3015.01 1365.98 3025.02 1401.62 3008.05 1401.62 2998.04 1365.98 3015.01"/><polygon class="cls-12" points="1365.98 3015.01 1365.98 3025.02 1330.34 3008.05 1330.34 2998.04 1365.98 3015.01"/><polygon class="cls-6" points="1365.98 2998.5 1365.98 3008.51 1401.62 2991.54 1401.62 2981.53 1365.98 2998.5"/><polygon class="cls-12" points="1365.98 2998.5 1365.98 3008.51 1330.34 2991.54 1330.34 2981.53 1365.98 2998.5"/><rect class="cls-6" x="702.37" y="2258.05" width="66.16" height="23.25"/></g><g id="Background_Slant_boxes" data-name="Background Slant boxes"><polygon class="cls-6" points="1024.95 3064.79 1438.95 2863.73 1438.95 2721 1024.95 2922.06 1024.95 3064.79"/><polygon class="cls-6" points="1438.95 486.25 1024.95 687.3 1024.95 0.5 1438.95 0.5 1438.95 486.25"/><polygon class="cls-6" points="1024.95 3829.76 1438.95 3829.76 1438.95 3485.97 1024.95 3687.02 1024.95 3829.76"/><rect class="cls-12" x="1354.91" y="24.06" width="57.84" height="11.05"/><rect class="cls-12" x="1354.91" y="43.38" width="57.84" height="11.05"/><rect class="cls-12" x="1354.91" y="62.7" width="57.84" height="11.05"/><rect class="cls-12" x="691.09" y="978.12" width="26.66" height="475.62"/><path class="cls-6" d="M755,1142.12H736.7l-16.38,119.59a16.27,16.27,0,0,1-.53,3.85c-1.11,4.24-3.82,7.24-7,7.24s-6.1-3.22-7.12-7.72a16.65,16.65,0,0,1-.43-3.81,15.73,15.73,0,0,1,.13-2.08l-6.06-117.07h-6.48c4.72,52.66,4.72,139.45,4.72,230.51,0,78.92,7.52,177.22,8,240.95l9.16,0-.76-37.28h11.11l2.66,37.32,21.93.07c-17.19-30-23.07-128.18-23.07-244.66C726.58,1269.89,738.57,1184,755,1142.12Zm-34,376.12h-8.17l-.89-43.35h6Zm-9.73-76.69c.34-2.36,1.09-4,2-4,1.05,0,1.92,2.35,2.13,5.48l.28,0,1.7,23.9h-5.56l-.39-18.84a19.1,19.1,0,0,1-.33-3.65A19.6,19.6,0,0,1,711.2,1441.55Zm2.59,126.8-.86-42.12h8.57l3,42.12Z" transform="translate(0.5 -158.99)"/><path class="cls-6" d="M668.19,1142.12h-12.3c1.52,5.7,3,12,4.43,18.77,10.95,51.93,19.07,133.1,19.07,208.17a1126.94,1126.94,0,0,1-18.3,203.57c-3.29,17.92-6.29,31.69-8.22,40.79l11,0h2.33q-.41-2.83-.83-5.85c9.29-38.18,23.62-130.35,23.62-238.55C689,1289.91,680,1195.9,668.19,1142.12Z" transform="translate(0.5 -158.99)"/><path class="cls-6" d="M774.85,1131.33c13.79-2,24.16-4.46,29.59-7.31a12.92,12.92,0,0,0,2.62-1.71,18.94,18.94,0,0,0-5.21-2.9c-5.23-2.11-13.28-4-23.45-5.59l-.07,0a3.35,3.35,0,0,1-.44-.07v0l1-5.45,1-5.51-.63-.23-5-1.85-10.1-3.76L731,1084.59a4.21,4.21,0,0,1-1.55-.58,4.5,4.5,0,0,1-2.23-3.9,4.18,4.18,0,0,1,.13-1.07,4.55,4.55,0,0,1,3.56-3.39l7.32-7q-5.07-.46-10.47-.8l-.8-3.67-.86-4H709.81l-1.47-8.54H696.68l-1.23,8.54H678.3l-1,4.36-.76,3.51q-5.22.38-10.09.88l7.23,6.87a4.49,4.49,0,0,1,2.5,2.38,4.39,4.39,0,0,1,.4,1.85,4.54,4.54,0,0,1-4.54,4.55L641,1096.24l-16.65,6.2.14.78,1,5.63.94,5.46c-2.37.4-4.61.82-6.7,1.26a83,83,0,0,0-13.68,3.84,18.94,18.94,0,0,0-5.21,2.9,14.28,14.28,0,0,0,3.12,2c3.92,1.94,10.14,3.71,18.18,5.26q3.36.64,7.13,1.23l1,5.78,1,6q-3.48.8-6.63,1.65c-1.88.52-3.68,1-5.38,1.6q2.8.93,6,1.79,3.42.93,7.22,1.78c18.76,4.19,44.08,6.76,71.92,6.76,22.81,0,43.91-1.72,61.1-4.65q3.16-.52,6.15-1.13A153.43,153.43,0,0,0,789,1145.9a148.29,148.29,0,0,0-16-4.16l.8-4.64Z" transform="translate(0.5 -158.99)"/><line class="cls-39" x1="702.5" y1="852.02" x2="702.5" y2="895.95"/><polygon class="cls-40" points="1383.39 1253.03 1380.91 1218.08 1380.31 1218.08 1380.31 1253.03 1383.39 1253.03"/><polygon class="cls-40" points="1380.34 1210.1 1380.31 1209.65 1380.31 1210.1 1380.34 1210.1"/><path class="cls-12" d="M1377.86,1345.21c-.21-3.13-1.08-5.48-2.13-5.48-.88,0-1.63,1.64-2,4a19.6,19.6,0,0,0-.2,2.87,19.1,19.1,0,0,0,.33,3.65l.39,18.84h5.53v-.44l-1.67-23.46Z" transform="translate(0.5 -158.99)"/><polygon class="cls-12" points="1375.65 1253.03 1380.31 1253.03 1380.31 1218.08 1374.94 1218.08 1375.65 1253.03"/><path class="cls-40" d="M1382.35,1167.74a16.27,16.27,0,0,0,.53-3.85l14.61-106.69c-5.71.41-11.61.71-17.68.89v114.65A12.17,12.17,0,0,0,1382.35,1167.74Z" transform="translate(0.5 -158.99)"/><path class="cls-40" d="M1333.34,1057c10.52,55,18.2,141,18.2,214.27a1292.52,1292.52,0,0,1-7.79,140.78h9.4v-354C1346.32,1057.84,1339.69,1057.48,1333.34,1057Z" transform="translate(0.5 -158.99)"/><path class="cls-12" d="M1362.59,1058.25l5.34,103.12a15.73,15.73,0,0,0-.13,2.08,16.65,16.65,0,0,0,.43,3.81c1,4.5,3.82,7.72,7.12,7.72a6,6,0,0,0,4.46-2.24V1058.09q-6.35.18-12.92.19Z" transform="translate(0.5 -158.99)"/><path class="cls-12" d="M1360.11,1274.81c0-83.48,0-163.36-3.64-216.65l-3.32-.1v354h11.29C1362.33,1366.33,1360.11,1317.71,1360.11,1274.81Z" transform="translate(0.5 -158.99)"/><path class="cls-6" d="M1382.88,1163.89a16.27,16.27,0,0,1-.53,3.85,12.17,12.17,0,0,1-2.54,5v195.9l0,.44h0v8h.6l2.49,34.95h10.26c-2.84-40.3-4-88.71-4-140.78,0-90.89,10.07-170.64,24.38-215.55-5.12.6-10.48,1.11-16,1.51Z" transform="translate(0.5 -158.99)"/><path class="cls-6" d="M1375.35,1175c-3.3,0-6.1-3.22-7.12-7.72a16.65,16.65,0,0,1-.43-3.81,15.73,15.73,0,0,1,.13-2.08l-5.34-103.12q-3.08,0-6.12-.1c3.64,53.3,3.64,133.17,3.64,216.65,0,42.9,2.22,91.52,4.33,137.21h10.72l-.72-34.95h5.37v-8h-5.53l-.39-18.84a19.1,19.1,0,0,1-.33-3.65,19.6,19.6,0,0,1,.2-2.87c.34-2.36,1.09-4,2-4,1.05,0,1.92,2.35,2.13,5.48l.28,0,1.67,23.46v-195.9A6,6,0,0,1,1375.35,1175Z" transform="translate(0.5 -158.99)"/><path class="cls-6" d="M1351.54,1271.24c0-73.25-7.67-159.23-18.2-214.27q-6.22-.5-12.07-1.17c.54,2.36,1.08,4.77,1.61,7.27,10.95,51.93,19.07,133.1,19.07,208.17a1143.4,1143.4,0,0,1-8.65,140.78h10.45A1292.52,1292.52,0,0,0,1351.54,1271.24Z" transform="translate(0.5 -158.99)"/><path class="cls-6" d="M1325,1044.3h5.71c.88,4,1.75,8.24,2.59,12.67,6.35.51,13,.87,19.81,1.09v-18.77h26.66v18.8c6.07-.18,12-.48,17.68-.89l1.77-12.9h18.27c-1.37,3.49-2.71,7.3-4,11.39,5.07-.6,9.91-1.29,14.47-2.06q3.16-.52,6.15-1.13a153.43,153.43,0,0,0,17.45-4.41,148.29,148.29,0,0,0-16-4.16l.8-4.64,1-5.77c13.79-2,24.16-4.46,29.59-7.31a12.92,12.92,0,0,0,2.62-1.71,18.94,18.94,0,0,0-5.21-2.9c-5.23-2.11-13.28-4-23.45-5.59l-.07,0a3.35,3.35,0,0,1-.44-.07v0l1-5.45,1-5.51-.63-.23-5-1.85-10.1-3.76-33.06-12.31a4.21,4.21,0,0,1-1.55-.58,4.5,4.5,0,0,1-2.23-3.9,4.18,4.18,0,0,1,.13-1.07,4.55,4.55,0,0,1,3.56-3.39l7.32-7q-5.07-.46-10.47-.8l-.8-3.67-.86-4h-16.32l-1.47-8.54h-6.35v0h-5.31l-1.23,8.54h-17.15l-1,4.36-.76,3.51q-5.22.38-10.09.88l7.23,6.87a4.49,4.49,0,0,1,2.5,2.38,4.39,4.39,0,0,1,.4,1.85,4.54,4.54,0,0,1-4.54,4.55l-31.12,11.58-16.65,6.2.14.78,1,5.63.94,5.46c-2.37.4-4.61.82-6.7,1.26a83,83,0,0,0-13.68,3.84,18.94,18.94,0,0,0-5.21,2.9,14.28,14.28,0,0,0,3.12,2c3.92,1.94,10.14,3.71,18.18,5.26q3.36.64,7.13,1.23l1,5.78,1,6q-3.48.8-6.63,1.65c-1.88.52-3.68,1-5.38,1.6q2.8.93,6,1.79,3.42.93,7.22,1.78a255.74,255.74,0,0,0,26.3,4.29c-.93-4-1.86-7.9-2.82-11.5Z" transform="translate(0.5 -158.99)"/><path class="cls-6" d="M1355.39,1044.3h6.48l.72,14,4.3,0q6.56,0,12.92-.19v-18.8h-26.66v18.77l3.32.1C1356.14,1053.32,1355.78,1048.68,1355.39,1044.3Z" transform="translate(0.5 -158.99)"/><path class="cls-6" d="M1399.26,1044.3l-1.77,12.9c5.55-.4,10.91-.91,16-1.51,1.3-4.09,2.64-7.9,4-11.39Z" transform="translate(0.5 -158.99)"/><path class="cls-6" d="M1361.87,1044.3h-6.48c.39,4.38.75,9,1.08,13.86q3,.07,6.12.1Z" transform="translate(0.5 -158.99)"/><path class="cls-6" d="M1330.75,1044.3h-12.3c1,3.6,1.9,7.46,2.82,11.5q5.84.67,12.07,1.17C1332.49,1052.54,1331.63,1048.3,1330.75,1044.3Z" transform="translate(0.5 -158.99)"/><line class="cls-41" x1="1365.98" y1="760.38" x2="1365.98" y2="814.5"/><polygon class="cls-6" points="1024.95 1507.98 1438.95 1306.93 1438.95 1164.2 1024.95 1365.25 1024.95 1507.98"/><path class="cls-42" d="M124,2727.82h0c-.09-.19-12.33-24.32-12.33-24.32s-12.24,24.13-12.33,24.32h0a13.66,13.66,0,1,0,24.66,0Z" transform="translate(0.5 -158.99)"/><path class="cls-41" d="M110.38,2877.48h0c-.09-.19-12.33-24.32-12.33-24.32s-12.24,24.13-12.33,24.32h0a13.66,13.66,0,1,0,24.66,0Z" transform="translate(0.5 -158.99)"/><path class="cls-41" d="M151.35,2907.78h0c-.09-.19-12.33-24.32-12.33-24.32s-12.24,24.13-12.33,24.32h0a13.66,13.66,0,1,0,24.66,0Z" transform="translate(0.5 -158.99)"/><path class="cls-41" d="M187.22,2842h0c-.09-.19-12.33-24.32-12.33-24.32s-12.24,24.13-12.33,24.32h0a13.66,13.66,0,1,0,24.66,0Z" transform="translate(0.5 -158.99)"/><path class="cls-41" d="M205.67,2980.8h0c-.09-.19-12.33-24.32-12.33-24.32S181.1,2980.61,181,2980.8h0a13.66,13.66,0,1,0,24.66,0Z" transform="translate(0.5 -158.99)"/><path class="cls-41" d="M128.72,3053.85h0c-.11-.23-14.86-29.31-14.86-29.31S99.11,3053.62,99,3053.85h0a16.46,16.46,0,1,0,29.72,0Z" transform="translate(0.5 -158.99)"/><path class="cls-41" d="M102.79,3161.25h0c-.11-.23-14.86-29.31-14.86-29.31S73.18,3161,73.07,3161.25h0a16.46,16.46,0,1,0,29.72,0Z" transform="translate(0.5 -158.99)"/><path class="cls-42" d="M104,2968.6h0c-.09-.19-12.33-24.32-12.33-24.32s-12.24,24.13-12.33,24.32h0a13.66,13.66,0,1,0,24.66,0Z" transform="translate(0.5 -158.99)"/><path class="cls-41" d="M191.15,3133.49h0c-.11-.24-15.7-31-15.7-31s-15.59,30.72-15.7,31h0a17.39,17.39,0,1,0,31.4,0Z" transform="translate(0.5 -158.99)"/><path class="cls-41" d="M98.5,2789.32h0L91.7,2775.9l-6.81,13.42h0a7.54,7.54,0,1,0,13.61,0Z" transform="translate(0.5 -158.99)"/><path class="cls-41" d="M200.15,2899.47h0L193.34,2886l-6.81,13.42h0a7.54,7.54,0,1,0,13.61,0Z" transform="translate(0.5 -158.99)"/><path class="cls-41" d="M84.85,2672.67h0L78,2659.25l-6.81,13.42h0a7.54,7.54,0,1,0,13.61,0Z" transform="translate(0.5 -158.99)"/><path class="cls-41" d="M118.52,2652.13h0l-6.81-13.42-6.81,13.42h0a7.54,7.54,0,1,0,13.61,0Z" transform="translate(0.5 -158.99)"/><path class="cls-41" d="M77.31,2620.49h0l-6.81-13.42-6.81,13.42h0a7.54,7.54,0,1,0,13.61,0Z" transform="translate(0.5 -158.99)"/><path class="cls-41" d="M69.77,2652.13h0L63,2638.7l-6.81,13.42h0a7.54,7.54,0,1,0,13.61,0Z" transform="translate(0.5 -158.99)"/><path class="cls-41" d="M77.31,2748.68h0l-6.81-13.42-6.81,13.42h0a7.54,7.54,0,1,0,13.61,0Z" transform="translate(0.5 -158.99)"/><path class="cls-41" d="M174.41,3022.71h0L171,3016l-3.4,6.71h0a3.77,3.77,0,1,0,6.81,0Z" transform="translate(0.5 -158.99)"/><path class="cls-41" d="M66.36,2548.37h0l-3.4-6.71-3.4,6.71h0a3.77,3.77,0,1,0,6.81,0Z" transform="translate(0.5 -158.99)"/><path class="cls-41" d="M100.81,2554.42h0l-3.4-6.71-3.4,6.71h0a3.77,3.77,0,1,0,6.81,0Z" transform="translate(0.5 -158.99)"/><path class="cls-41" d="M58.82,2504.82h0l-3.4-6.71-3.4,6.71h0a3.77,3.77,0,1,0,6.81,0Z" transform="translate(0.5 -158.99)"/><path class="cls-41" d="M107.57,2601.67h0l-3.4-6.71-3.4,6.71h0a3.77,3.77,0,1,0,6.81,0Z" transform="translate(0.5 -158.99)"/><path class="cls-41" d="M87.8,2639.36h0l-3.4-6.71-3.4,6.71h0a3.77,3.77,0,1,0,6.81,0Z" transform="translate(0.5 -158.99)"/><path class="cls-41" d="M66.36,2595.62h0l-3.4-6.71-3.4,6.71h0a3.77,3.77,0,1,0,6.81,0Z" transform="translate(0.5 -158.99)"/><path class="cls-41" d="M73.9,2526h0l-3.4-6.71L67.1,2526h0a3.77,3.77,0,1,0,6.81,0Z" transform="translate(0.5 -158.99)"/><path class="cls-41" d="M87.56,2574.82h0l-3.4-6.71-3.4,6.71h0a3.77,3.77,0,1,0,6.81,0Z" transform="translate(0.5 -158.99)"/><path class="cls-41" d="M70.13,2834.22h0l-3.4-6.71-3.4,6.71h0a3.77,3.77,0,1,0,6.81,0Z" transform="translate(0.5 -158.99)"/><path class="cls-41" d="M139.87,2852.13h0l-3.4-6.71-3.4,6.71h0a3.77,3.77,0,1,0,6.81,0Z" transform="translate(0.5 -158.99)"/><path class="cls-41" d="M120.67,2777.22h0l-6.81-13.42-6.81,13.42h0a7.54,7.54,0,1,0,13.61,0Z" transform="translate(0.5 -158.99)"/><path class="cls-41" d="M137.13,2716.93h0l-6.81-13.42-6.81,13.42h0a7.54,7.54,0,1,0,13.61,0Z" transform="translate(0.5 -158.99)"/><path class="cls-43" d="M1178.43,2593.2h0c-.09-.19-12.33-24.32-12.33-24.32s-12.24,24.13-12.33,24.32h0a13.66,13.66,0,1,0,24.66,0Z" transform="translate(0.5 -158.99)"/><path class="cls-43" d="M1101.71,2774.8h0c-.09-.19-12.33-24.32-12.33-24.32s-12.24,24.13-12.33,24.32h0a13.66,13.66,0,1,0,24.66,0Z" transform="translate(0.5 -158.99)"/><path class="cls-43" d="M1142.68,2805.1h0c-.09-.19-12.33-24.32-12.33-24.32s-12.24,24.13-12.33,24.32h0a13.66,13.66,0,1,0,24.66,0Z" transform="translate(0.5 -158.99)"/><path class="cls-43" d="M1242.68,2681.66h0c-.09-.19-12.33-24.32-12.33-24.32s-12.24,24.13-12.33,24.32h0a13.66,13.66,0,1,0,24.66,0Z" transform="translate(0.5 -158.99)"/><path class="cls-43" d="M1197,2878.12h0c-.09-.19-12.33-24.32-12.33-24.32s-12.24,24.13-12.33,24.32h0a13.66,13.66,0,1,0,24.66,0Z" transform="translate(0.5 -158.99)"/><path class="cls-43" d="M1120,2951.17h0c-.11-.23-14.86-29.31-14.86-29.31s-14.75,29.08-14.86,29.31h0a16.46,16.46,0,1,0,29.72,0Z" transform="translate(0.5 -158.99)"/><path class="cls-43" d="M1094.11,3058.57h0c-.11-.23-14.86-29.31-14.86-29.31s-14.75,29.08-14.86,29.31h0a16.46,16.46,0,1,0,29.72,0Z" transform="translate(0.5 -158.99)"/><path class="cls-43" d="M1095.35,2865.92h0c-.09-.19-12.33-24.32-12.33-24.32s-12.24,24.13-12.33,24.32h0a13.66,13.66,0,1,0,24.66,0Z" transform="translate(0.5 -158.99)"/><path class="cls-43" d="M1182.48,3030.81h0c-.11-.24-15.7-31-15.7-31s-15.59,30.72-15.7,31h0a17.39,17.39,0,1,0,31.4,0Z" transform="translate(0.5 -158.99)"/><path class="cls-43" d="M1089.83,2686.64h0l-6.81-13.42-6.81,13.42h0a7.54,7.54,0,1,0,13.61,0Z" transform="translate(0.5 -158.99)"/><path class="cls-43" d="M1191.47,2796.8h0l-6.81-13.42-6.81,13.42h0a7.54,7.54,0,1,0,13.61,0Z" transform="translate(0.5 -158.99)"/><path class="cls-43" d="M1076.17,2570h0l-6.81-13.42-6.81,13.42h0a7.54,7.54,0,1,0,13.61,0Z" transform="translate(0.5 -158.99)"/><path class="cls-43" d="M1191.47,2430h0l-6.81-13.42-6.81,13.42h0a7.54,7.54,0,1,0,13.61,0Z" transform="translate(0.5 -158.99)"/><path class="cls-43" d="M1107.85,2514.2h0l-6.81-13.42-6.81,13.42h0a7.54,7.54,0,1,0,13.61,0Z" transform="translate(0.5 -158.99)"/><path class="cls-43" d="M1061.09,2549.45h0l-6.81-13.42-6.81,13.42h0a7.54,7.54,0,1,0,13.61,0Z" transform="translate(0.5 -158.99)"/><path class="cls-43" d="M1068.63,2646h0l-6.81-13.42L1055,2646h0a7.54,7.54,0,1,0,13.61,0Z" transform="translate(0.5 -158.99)"/><path class="cls-43" d="M1165.74,2920h0l-3.4-6.71-3.4,6.71h0a3.77,3.77,0,1,0,6.81,0Z" transform="translate(0.5 -158.99)"/><path class="cls-43" d="M1096.91,2442.08h0l-3.4-6.71-3.4,6.71h0a3.77,3.77,0,1,0,6.81,0Z" transform="translate(0.5 -158.99)"/><path class="cls-43" d="M1125.05,2402.14h0l-3.4-6.71-3.4,6.71h0a3.77,3.77,0,1,0,6.81,0Z" transform="translate(0.5 -158.99)"/><path class="cls-43" d="M1050.15,2402.14h0l-3.4-6.71-3.4,6.71h0a3.77,3.77,0,1,0,6.81,0Z" transform="translate(0.5 -158.99)"/><path class="cls-43" d="M1138.12,2495.38h0l-3.4-6.71-3.4,6.71h0a3.77,3.77,0,1,0,6.81,0Z" transform="translate(0.5 -158.99)"/><path class="cls-43" d="M1125.05,2551.18h0l-3.4-6.71-3.4,6.71h0a3.77,3.77,0,1,0,6.81,0Z" transform="translate(0.5 -158.99)"/><path class="cls-43" d="M1096.91,2489.33h0l-3.4-6.71-3.4,6.71h0a3.77,3.77,0,1,0,6.81,0Z" transform="translate(0.5 -158.99)"/><path class="cls-43" d="M1065.23,2423.27h0l-3.4-6.71-3.4,6.71h0a3.77,3.77,0,1,0,6.81,0Z" transform="translate(0.5 -158.99)"/><path class="cls-43" d="M1254.7,2392.12h0l-3.4-6.71-3.4,6.71h0a3.77,3.77,0,1,0,6.81,0Z" transform="translate(0.5 -158.99)"/><path class="cls-43" d="M1061.46,2731.54h0l-3.4-6.71-3.4,6.71h0a3.77,3.77,0,1,0,6.81,0Z" transform="translate(0.5 -158.99)"/><path class="cls-43" d="M1131.2,2749.45h0l-3.4-6.71-3.4,6.71h0a3.77,3.77,0,1,0,6.81,0Z" transform="translate(0.5 -158.99)"/><path class="cls-43" d="M1112,2674.54h0l-6.81-13.42-6.81,13.42h0a7.54,7.54,0,1,0,13.61,0Z" transform="translate(0.5 -158.99)"/><path class="cls-43" d="M1128.46,2614.25h0l-6.81-13.42-6.81,13.42h0a7.54,7.54,0,1,0,13.61,0Z" transform="translate(0.5 -158.99)"/><path class="cls-42" d="M645.13,2717h0c-.09-.19-12.33-24.32-12.33-24.32s-12.24,24.13-12.33,24.32h0a13.66,13.66,0,1,0,24.66,0Z" transform="translate(0.5 -158.99)"/><path class="cls-41" d="M568.41,2898.56h0c-.09-.19-12.33-24.32-12.33-24.32s-12.24,24.13-12.33,24.32h0a13.66,13.66,0,1,0,24.66,0Z" transform="translate(0.5 -158.99)"/><path class="cls-41" d="M609.38,2928.86h0c-.09-.19-12.33-24.32-12.33-24.32s-12.24,24.13-12.33,24.32h0a13.66,13.66,0,1,0,24.66,0Z" transform="translate(0.5 -158.99)"/><path class="cls-41" d="M709.38,2805.42h0c-.09-.19-12.33-24.32-12.33-24.32s-12.24,24.13-12.33,24.32h0a13.66,13.66,0,1,0,24.66,0Z" transform="translate(0.5 -158.99)"/><path class="cls-41" d="M663.7,3001.88h0c-.09-.19-12.33-24.32-12.33-24.32s-12.24,24.13-12.33,24.32h0a13.66,13.66,0,1,0,24.66,0Z" transform="translate(0.5 -158.99)"/><path class="cls-41" d="M586.75,3074.92h0c-.11-.23-14.86-29.31-14.86-29.31s-14.75,29.08-14.86,29.31h0a16.46,16.46,0,1,0,29.72,0Z" transform="translate(0.5 -158.99)"/><path class="cls-41" d="M560.81,3182.33h0C560.71,3182.1,546,3153,546,3153s-14.75,29.08-14.86,29.31h0a16.46,16.46,0,1,0,29.72,0Z" transform="translate(0.5 -158.99)"/><path class="cls-42" d="M562.05,2989.67h0c-.09-.19-12.33-24.32-12.33-24.32s-12.24,24.13-12.33,24.32h0a13.66,13.66,0,1,0,24.66,0Z" transform="translate(0.5 -158.99)"/><path class="cls-41" d="M649.18,3154.57h0c-.11-.24-15.7-31-15.7-31s-15.59,30.72-15.7,31h0a17.39,17.39,0,1,0,31.4,0Z" transform="translate(0.5 -158.99)"/><path class="cls-41" d="M556.53,2810.4h0L549.72,2797l-6.81,13.42h0a7.54,7.54,0,1,0,13.61,0Z" transform="translate(0.5 -158.99)"/><path class="cls-41" d="M658.18,2920.55h0l-6.81-13.42-6.81,13.42h0a7.54,7.54,0,1,0,13.61,0Z" transform="translate(0.5 -158.99)"/><path class="cls-41" d="M542.87,2693.75h0l-6.81-13.42-6.81,13.42h0a7.54,7.54,0,1,0,13.61,0Z" transform="translate(0.5 -158.99)"/><path class="cls-41" d="M658.18,2553.74h0l-6.81-13.42-6.81,13.42h0a7.54,7.54,0,1,0,13.61,0Z" transform="translate(0.5 -158.99)"/><path class="cls-41" d="M574.55,2638h0l-6.81-13.42L560.94,2638h0a7.54,7.54,0,1,0,13.61,0Z" transform="translate(0.5 -158.99)"/><path class="cls-41" d="M527.79,2673.21h0L521,2659.78l-6.81,13.42h0a7.54,7.54,0,1,0,13.61,0Z" transform="translate(0.5 -158.99)"/><path class="cls-41" d="M535.33,2769.76h0l-6.81-13.42-6.81,13.42h0a7.54,7.54,0,1,0,13.61,0Z" transform="translate(0.5 -158.99)"/><path class="cls-41" d="M632.44,3043.79h0l-3.4-6.71-3.4,6.71h0a3.77,3.77,0,1,0,6.81,0Z" transform="translate(0.5 -158.99)"/><path class="cls-41" d="M563.61,2565.84h0l-3.4-6.71-3.4,6.71h0a3.77,3.77,0,1,0,6.81,0Z" transform="translate(0.5 -158.99)"/><path class="cls-41" d="M591.76,2525.89h0l-3.4-6.71-3.4,6.71h0a3.77,3.77,0,1,0,6.81,0Z" transform="translate(0.5 -158.99)"/><path class="cls-41" d="M516.85,2525.89h0l-3.4-6.71-3.4,6.71h0a3.77,3.77,0,1,0,6.81,0Z" transform="translate(0.5 -158.99)"/><path class="cls-41" d="M604.82,2619.14h0l-3.4-6.71-3.4,6.71h0a3.77,3.77,0,1,0,6.81,0Z" transform="translate(0.5 -158.99)"/><path class="cls-41" d="M591.76,2674.93h0l-3.4-6.71-3.4,6.71h0a3.77,3.77,0,1,0,6.81,0Z" transform="translate(0.5 -158.99)"/><path class="cls-41" d="M563.61,2613.09h0l-3.4-6.71-3.4,6.71h0a3.77,3.77,0,1,0,6.81,0Z" transform="translate(0.5 -158.99)"/><path class="cls-41" d="M531.93,2547h0l-3.4-6.71-3.4,6.71h0a3.77,3.77,0,1,0,6.81,0Z" transform="translate(0.5 -158.99)"/><path class="cls-41" d="M721.41,2515.88h0l-3.4-6.71-3.4,6.71h0a3.77,3.77,0,1,0,6.81,0Z" transform="translate(0.5 -158.99)"/><path class="cls-41" d="M528.16,2855.29h0l-3.4-6.71-3.4,6.71h0a3.77,3.77,0,1,0,6.81,0Z" transform="translate(0.5 -158.99)"/><path class="cls-41" d="M597.9,2873.21h0l-3.4-6.71-3.4,6.71h0a3.77,3.77,0,1,0,6.81,0Z" transform="translate(0.5 -158.99)"/><path class="cls-41" d="M578.7,2798.29h0l-6.81-13.42-6.81,13.42h0a7.54,7.54,0,1,0,13.61,0Z" transform="translate(0.5 -158.99)"/><path class="cls-41" d="M595.16,2738h0l-6.81-13.42L581.55,2738h0a7.54,7.54,0,1,0,13.61,0Z" transform="translate(0.5 -158.99)"/><polygon class="cls-6" points="1024.95 2282.98 1438.95 2081.93 1438.95 1939.2 1024.95 2140.25 1024.95 2282.98"/><text class="cls-44" transform="translate(39.24 957.54)"><tspan class="cls-45">P</tspan><tspan class="cls-46" x="11.07" y="0">lane flying </tspan><tspan class="cls-47" x="106.41" y="0">o</tspan><tspan class="cls-48" x="117.79" y="0">v</tspan><tspan x="127.68" y="0">er/near spa</tspan><tspan class="cls-49" x="226.27" y="0">c</tspan><tspan x="235.55" y="0">e needle - anim</tspan><tspan class="cls-50" x="370.1" y="0">a</tspan><tspan class="cls-51" x="380.14" y="0">t</tspan><tspan class="cls-46" x="386.96" y="0">e</tspan><tspan class="cls-52" x="397.48" y="0">d</tspan><tspan x="409.12" y="0">.</tspan></text></g><g id="Headings"><text class="cls-53" transform="translate(1031.95 87.95)">Jamie</text><text class="cls-53" transform="translate(1031.95 177)">Degnan</text></g><g id="Projects"><polygon class="cls-6" points="133.2 1983.6 133.2 2126.33 340.2 2025.8 340.2 1883.07 133.2 1983.6"/><polygon class="cls-6" points="1231.95 1718.59 1438.95 1618.06 1438.95 1546.98 1231.95 1647.51 1231.95 1718.59"/><polygon class="cls-6" points="1024.95 1890.1 1231.95 1789.57 1231.95 1718.5 1024.95 1819.02 1024.95 1890.1"/><polygon class="cls-6" points="1231.95 1864.31 1438.95 1763.78 1438.95 1692.71 1231.95 1793.23 1231.95 1864.31"/><polygon class="cls-6" points="1024.95 2035.82 1231.95 1935.3 1231.95 1864.22 1024.95 1964.75 1024.95 2035.82"/><polygon class="cls-6" points="133.2 1770 133.2 1912.73 340.2 1812.2 340.2 1669.47 133.2 1770"/><text class="cls-54" transform="matrix(0.9, -0.44, 0.44, 0.9, 1240.69, 1666.89)">Project 1</text><text class="cls-54" transform="matrix(0.9, -0.44, 0.44, 0.9, 1034.03, 1839.55)">Project 2</text><text class="cls-54" transform="matrix(0.9, -0.44, 0.44, 0.9, 1240.69, 1812.78)">Project 3</text><text class="cls-54" transform="matrix(0.9, -0.44, 0.44, 0.9, 1034.03, 1987.96)">Project 4</text></g><g id="About_Me_Text" data-name="About Me Text"><polygon class="cls-55" points="1272.29 1221.48 1061.75 1324.38 1061.75 899.07 1272.29 899.07 1272.29 1221.48"/><text class="cls-56" transform="translate(1126.54 1034.33)">text goes here</text><text class="cls-57" transform="translate(1061.75 885.31)">Hi!</text></g><g id="Footer"><path d="M153.16,3525.54c1.42.76,2.87,1.47,4.34,2.16v-6.26c-1.44.18-2.88.31-4.34.43Z" transform="translate(0.5 -158.99)"/><path d="M150.14,3523.86l1.93-1.93c-1.58.11-3.17.19-4.77.22Q148.7,3523,150.14,3523.86Z" transform="translate(0.5 -158.99)"/><path d="M310.72,3400.72v3.71a47.51,47.51,0,0,0,3.13-5.88C312.84,3399.31,311.79,3400,310.72,3400.72Z" transform="translate(0.5 -158.99)"/><path d="M310.72,3421.5a47.58,47.58,0,0,0,7-10.35,47.27,47.27,0,0,1-12.22,4.7l-6.59,6.59V3407l5.49,5.49a48,48,0,0,0,3.25-3.69l-4.23-4.23a47.22,47.22,0,0,1-7.11,2.33c-.44.11-.89.22-1.34.3l-.41.08v15.17l-7.73-7.73,7.38-7.38c-1.34.27-2.7.48-4.08.63-.52-.57-1.06-1.12-1.62-1.66l-5.55,5.55v-9.93a35.06,35.06,0,0,0-4.34-2.37v12.3l-7.73-7.73,5.49-5.49a34.89,34.89,0,0,0-5.22-1.51l-4.13,4.13v-4.72c-1-.08-2-.14-3-.14h-.57l-.78,0v4.83l-4.39-4.39c-.95.15-1.88.34-2.8.57l-.56.15c-.74.2-1.47.43-2.2.67l5.86,5.86-7.73,7.73V3399c-.6.24-1.19.49-1.77.77-.88.41-1.73.87-2.57,1.35v10.78l-6.23-6.23a35.28,35.28,0,0,0-2.91,3l-.3.37,5.47,5.47-7.73,7.73V3412c-.45.67-.89,1.36-1.3,2.07l-.14.24a35,35,0,0,0-4.48,15.2l1.58-1.58v15.45l-3.77-3.77c-1.5,0-3-.09-4.48-.2-.95-.07-1.89-.16-2.83-.25l7.11,7.11-7.73,7.73v-14.9a86.26,86.26,0,0,1-10.1-1.74l-6.05,6.05v-7.7q-2.2-.69-4.34-1.49v9.19l-7.73-7.73,3.27-3.26q-2.18-1-4.3-2l-2.83,2.83v-4.32q-2.21-1.22-4.34-2.56v6.88l-7.73-7.73,2.63-2.63q-2.11-1.56-4.13-3.24l-2.59,2.59v-4.84l-.53-.47q-2-1.8-3.81-3.72v9l-7.73-7.73,4.66-4.66a86.69,86.69,0,0,1-6-7.74,34.84,34.84,0,0,0-5.16,18.11,34.13,34.13,0,0,0,2.89,13.72,41.62,41.62,0,0,0,12.57,15.91l-1.23-.14v13.87l-7.73-7.73,6.32-6.32a95.53,95.53,0,0,1-12.82-2.61v.13c0,9.32,4.18,17.88,11.18,24.66l3-3v5.73a49.08,49.08,0,0,0,4.34,3.13v-8.87l7.73,7.73-5,2.78c1.5.84,3.05,1.62,4.67,2.34a96.78,96.78,0,0,1-13,.91c1.48,9.5,9.9,17.6,21.77,22v-5l7,7c1.14.25,2.3.47,3.48.66a94.78,94.78,0,0,1-19.17,9.47l1.18,1.18-7.73,7.73v-6.81c-1.43.4-2.88.78-4.34,1.12v5.69l-4.73-4.73c-1.47.26-2.95.5-4.44.69l7.21,7.21-1.71,1.71a99,99,0,0,0,18,5.16l-6.79-6.79,7.73-7.73v14.69c1.43.25,2.88.47,4.34.66v-15.35l7.73,7.73-7.64,7.64c2.09.27,4.19.49,6.32.63l5.41-5.41v5.61l1.36,0c1,0,2,0,3,0v-5.59l5.29,5.29q3-.25,6-.68l-7.47-7.47,7.73-7.73v15.16q2.19-.32,4.34-.74v-14.43l7.73,7.73-6.46,6.46a99,99,0,0,0,18.59-5.77l-.13-.13,7.73-7.73v4.26q2.2-1.16,4.34-2.42v-1.83l1.15,1.15q2.38-1.45,4.66-3l-1.3-1.3,7.73-7.73v4.21a100.28,100.28,0,0,0,19.9-21.82V3479.6l5,5a99.15,99.15,0,0,0,11.72-41.87l-.59.59v-15.45l2,2q2-1.3,3.87-2.8L303,3425.3l.14-.14L303,3425l7.73-7.73v4.2Zm-154.1-3.78,7.73,7.73-7.73,7.73Zm9.64,26-7.73-7.73,7.73-7.73Zm4.34-15.45,7.73,7.73-7.73,7.73Zm0,19.76,7.73,7.73-7.73,7.73Zm11.81,46.59-7.73-7.73,7.73-7.73Zm0-21.18-7.73-7.73,7.73-7.73Zm0-19.13-7.73-7.73,7.73-7.73Zm4.34-15.45,7.73,7.73-7.73,7.73Zm0,19.13,7.73,7.73-7.73,7.73Zm0,21.18,7.73,7.73-7.73,7.73Zm11.59,46.58-7.73-7.73,7.73-7.73Zm0-20.15-7.73-7.73,7.73-7.73Zm0-20.15-7.73-7.73,7.73-7.73Zm0-20.94-7.73-7.73,7.73-7.73Zm4.34-15.45,7.73,7.73-7.73,7.73Zm0,20.94,7.73,7.73-7.73,7.73Zm0,20.15,7.73,7.73-7.73,7.73Zm0,35.6v-15.45l7.73,7.73Zm11.81-10.59-7.73-7.73,7.73-7.73Zm0-19.13-7.73-7.73,7.73-7.73Zm0-21.18-7.73-7.73,7.73-7.73Zm0-20.94-7.73-7.73,7.73-7.73Zm4.34,5.49,7.73,7.73-7.73,7.73Zm0,21.18,7.73,7.73-7.73,7.73Zm0,19.13,7.73,7.73-7.73,7.73Zm11.51,26-7.73-7.73,7.73-7.73Zm0-20.15-7.73-7.73,7.73-7.73Zm.08-20.54-7.73-7.73,7.73-7.73Zm0-21.18-7.73-7.73,7.73-7.73Zm4.45-36,7.73,7.73-7.73,7.73Zm-.11,20.57,7.73,7.73-7.73,7.73Zm0,21.18,7.73,7.73-7.73,7.73Zm-.08,20.54,7.73,7.73-7.73,7.73Zm0,35.6v-15.45l7.73,7.73Zm11.89-10.59-7.73-7.73,7.73-7.73Zm0-20.15-7.73-7.73,7.73-7.73Zm0-20.54-7.73-7.73,7.73-7.73Zm0-20.57-7.73-7.73,7.73-7.73Zm0-21.18-7.73-7.73,7.73-7.73ZM262.49,3407v15.45l-7.73-7.73Zm-11.59,10.32,7.73,7.73-7.73,7.73Zm0,21.18,7.73,7.73-7.73,7.73Zm11.59,10.59v15.45l-7.73-7.73Zm-11.59,10,7.73,7.73-7.73,7.73Zm0,20.54,7.73,7.73-7.73,7.73Zm0,35.6v-15.45l7.73,7.73Zm11.81-9.56-7.73-7.73,7.73-7.73Zm0-21.18-7.73-7.73,7.73-7.73Zm0-41.11-7.73-7.73,7.73-7.73Zm4.12-36.36,7.73,7.73-7.73,7.73Zm.22,20.9,7.73,7.73-7.73,7.73Zm-.22,21.18,7.73,7.73-7.73,7.73Zm.22,19.94,7.73,7.73-7.73,7.73Zm0,36.63v-15.45l7.73,7.73ZM278.42,3495l-7.73-7.73,7.73-7.73Zm.22-19.94-7.73-7.73,7.73-7.73Zm0-21.18-7.73-7.73,7.73-7.73Zm0-20.9-7.73-7.73,7.73-7.73Zm4.34-15.45,7.73,7.73L283,3433Zm0,20.9,7.73,7.73-7.73,7.73Zm0,36.63v-15.45l7.73,7.73Zm11.59-10.56-7.73-7.73,7.73-7.73Zm0-21.2-7.73-7.73,7.73-7.73Z" transform="translate(0.5 -158.99)"/><path class="cls-12" d="M1047.61,3957c.73.39,1.48.76,2.24,1.11v-3.23c-.74.09-1.49.16-2.24.22Z" transform="translate(0.5 -158.99)"/><path class="cls-12" d="M1046,3956.12l1-1c-.82.06-1.63.1-2.46.11Q1045.31,3955.69,1046,3956.12Z" transform="translate(0.5 -158.99)"/><path class="cls-12" d="M1128.88,3892.59v1.92a24.51,24.51,0,0,0,1.61-3C1130,3891.87,1129.44,3892.24,1128.88,3892.59Z" transform="translate(0.5 -158.99)"/><path class="cls-12" d="M1128.88,3903.32a24.54,24.54,0,0,0,3.61-5.34,24.38,24.38,0,0,1-6.3,2.43l-3.4,3.4v-8l2.83,2.83a24.77,24.77,0,0,0,1.68-1.91l-2.18-2.18a24.36,24.36,0,0,1-3.67,1.2l-.69.16-.21,0v7.83l-4-4,3.81-3.81c-.69.14-1.39.25-2.11.33-.27-.3-.55-.58-.83-.86l-2.86,2.86v-5.12a18.08,18.08,0,0,0-2.24-1.22v6.34l-4-4,2.83-2.83a18,18,0,0,0-2.69-.78l-2.13,2.13v-2.44c-.51,0-1-.07-1.54-.07h-.7v2.49l-2.26-2.26c-.49.08-1,.18-1.45.29l-.29.08c-.38.1-.76.22-1.13.35l3,3-4,4v-6.65c-.31.12-.61.25-.91.39-.45.21-.89.45-1.33.7v5.56l-3.21-3.21a18.2,18.2,0,0,0-1.5,1.54l-.16.19,2.82,2.82-4,4v-5.26c-.23.35-.46.7-.67,1.07l-.07.12a18,18,0,0,0-2.31,7.84l.82-.82v8l-1.95-1.95c-.78,0-1.55,0-2.31-.1l-1.46-.13,3.67,3.67-4,4v-7.69a44.5,44.5,0,0,1-5.21-.9l-3.12,3.12v-4q-1.13-.35-2.24-.77v4.74l-4-4,1.68-1.68q-1.13-.49-2.22-1l-1.46,1.46v-2.23q-1.14-.63-2.24-1.32v3.55l-4-4,1.36-1.36q-1.09-.8-2.13-1.67l-1.34,1.34v-2.49l-.27-.24q-1-.93-2-1.92v4.66l-4-4,2.4-2.4a44.72,44.72,0,0,1-3.09-4,18,18,0,0,0-2.66,9.34,17.6,17.6,0,0,0,1.49,7.08,21.47,21.47,0,0,0,6.48,8.21l-.64-.07V3925l-4-4,3.26-3.26a49.28,49.28,0,0,1-6.61-1.34v.07a17.7,17.7,0,0,0,5.77,12.72l1.57-1.57v3a25.32,25.32,0,0,0,2.24,1.62v-4.57l4,4L1058,3933c.77.43,1.58.84,2.41,1.21a49.93,49.93,0,0,1-6.71.47c.76,4.9,5.11,9.08,11.23,11.33v-2.56l3.61,3.61c.59.13,1.19.24,1.8.34a48.89,48.89,0,0,1-9.89,4.89l.61.61-4,4v-3.51c-.74.21-1.48.4-2.24.58v2.93l-2.44-2.44c-.76.14-1.52.26-2.29.36l3.72,3.72-.88.88a51,51,0,0,0,9.27,2.66l-3.5-3.5,4-4v7.58c.74.13,1.49.24,2.24.34v-7.92l4,4-3.94,3.94c1.08.14,2.16.25,3.26.33l2.79-2.79v2.9h.7l1.54,0v-2.88l2.73,2.73q1.57-.13,3.12-.35l-3.86-3.86,4-4v7.82q1.13-.16,2.24-.38v-7.44l4,4-3.33,3.33a51.06,51.06,0,0,0,9.59-3l-.07-.07,4-4v2.2q1.14-.6,2.24-1.25v-.95l.59.59q1.23-.75,2.4-1.56l-.67-.67,4-4v2.17a51.73,51.73,0,0,0,10.27-11.26v-6.89l2.59,2.59a51.14,51.14,0,0,0,6-21.6l-.31.31v-8l1,1q1-.67,2-1.44l-.94-.94.07-.07-.07-.07,4-4v2.17Zm-79.49-2,4,4-4,4Zm5,13.43-4-4,4-4Zm2.24-8,4,4-4,4Zm0,10.19,4,4-4,4Zm6.09,24-4-4,4-4Zm0-10.92-4-4,4-4Zm0-9.87-4-4,4-4Zm2.24-8,4,4-4,4Zm0,9.87,4,4-4,4Zm0,10.92,4,4-4,4Zm6,24-4-4,4-4Zm0-10.4-4-4,4-4Zm0-10.4-4-4,4-4Zm0-10.8-4-4,4-4Zm2.24-8,4,4-4,4Zm0,10.8,4,4-4,4Zm0,10.4,4,4-4,4Zm0,18.37v-8l4,4Zm6.09-5.46-4-4,4-4Zm0-9.87-4-4,4-4Zm0-10.92-4-4,4-4Zm0-10.8-4-4,4-4Zm2.24,2.83,4,4-4,4Zm0,10.92,4,4-4,4Zm0,9.87,4,4-4,4Zm5.94,13.43-4-4,4-4Zm0-10.4-4-4,4-4Zm0-10.6-4-4,4-4Zm0-10.92-4-4,4-4Zm2.3-18.58,4,4-4,4Zm-.06,10.61,4,4-4,4Zm0,10.92,4,4-4,4Zm0,10.6,4,4-4,4Zm0,18.37v-8l4,4Zm6.13-5.46-4-4,4-4Zm0-10.4-4-4,4-4Zm0-10.6-4-4,4-4Zm0-10.61-4-4,4-4Zm0-10.92-4-4,4-4Zm8.22-13.29v8l-4-4Zm-6,5.32,4,4-4,4Zm0,10.92,4,4-4,4Zm6,5.46v8l-4-4Zm-6,5.15,4,4-4,4Zm0,10.6,4,4-4,4Zm0,18.37v-8l4,4Zm6.09-4.93-4-4,4-4Zm0-10.92-4-4,4-4Zm0-21.21-4-4,4-4Zm2.12-18.75,4,4-4,4Zm.11,10.78,4,4-4,4Zm-.11,10.92,4,4-4,4Zm.11,10.28,4,4-4,4Zm0,18.89v-8l4,4Zm5.86-5.46-4-4,4-4Zm.11-10.28-4-4,4-4Zm0-10.92-4-4,4-4Zm0-10.78-4-4,4-4Zm2.24-8,4,4-4,4Zm0,10.78,4,4-4,4Zm0,18.89v-8l4,4Zm6-5.45-4-4,4-4Zm0-10.94-4-4,4-4Z" transform="translate(0.5 -158.99)"/><path d="M510.6,3385.23H374.82a10.48,10.48,0,0,0-10.46,10.46v135.77a10.48,10.48,0,0,0,10.46,10.46H510.6a10.49,10.49,0,0,0,10.46-10.46V3395.68A10.49,10.49,0,0,0,510.6,3385.23Zm3.66,13.39v14.23l-7.12-7.12Zm-7.12,45.57,7.12-7.12v14.23Zm3.35,9.43-7.12,7.12v-14.23Zm-7.12-12.07v-14.23l7.12,7.12Zm3.76-16.87,7.12-7.12v14.23Zm-3.76-35.82,7.12,7.12-7.12,7.12Zm-.2,18.95,7.12,7.12-7.12,7.12Zm7.32,65.32-7.12,7.12V3466Zm-7.55,12.32,7.12,7.12-7.12,7.12Zm.2,19.51,7.12,7.12-7.12,7.12Zm-14.44-106.91,7.12,7.12-7.12,7.12Zm10.47,9.75V3422l-7.12-7.12Zm-10.47,9.75,7.12,7.12-7.12,7.12Zm-11.11,7.12,7.12-7.12v14.23Zm3.56,9.75-7.12,7.12v-14.23ZM474,3388.86l7.12,7.12L474,3403.1Zm10.68,9.19v14.23l-7.12-7.12Zm-10.88,9.75,7.12,7.12-7.12,7.12ZM470,3388.86v14.23l-7.12-7.12Zm0,38.46v14.23l-7.12-7.12Zm-.2-5.28-7.12-7.12,7.12-7.12Zm-10.27-23.43,7.12,7.12-7.12,7.12Zm-.41,18.95,7.12,7.12-7.12,7.12Zm-14.47-28.7.05.05v-.38l7.12,7.12-.19.19.13.13-7.12,7.12Zm10.88,9.75v14.23l-7.12-7.12Zm-10.88,9.19,7.12,7.12L444.7,3422Zm10.47,9.75v14.23l-7.12-7.12Zm-10.47,9.75,7.12,7.12-7.12,7.12Zm-11.06-31.66,7.12-7.12v14.23l-.05-.05v.38l-7.12-7.12.19-.19Zm-3.76,2.45,7.12,7.12-7.12,7.12Zm10.83,9.7V3422l-7.12-7.12Zm-10.88,9.75,7.12,7.12-7.12,7.12Zm10.88,9.75v14.23l-7.12-7.12Zm-25.29-39,7.12,7.12-7.12,7.12Zm10.47,9.75v14.23l-7.12-7.12Zm-10.47,9.75,7.12,7.12-7.12,7.12Zm10.42,9.7v14.23l-7.12-7.12ZM415,3427.37l7.12,7.12-7.12,7.12Zm.2,19.51,7.12,7.12-7.12,7.12Zm-3.8-58.53v14.23l-7.12-7.12Zm-25.55,0,7.12,7.12-7.12,7.12Zm-4,0v14.23l-7.12-7.12Zm-10.47,82.52v-14.23l7.12,7.12Zm10.27-5v14.23l-7.12-7.12Zm-7.12-31.34,7.12-7.12v14.23Zm4,9.75-7.12,7.12v-14.23Zm3.15-22.15-7.12-7.12,7.12-7.12Zm-10.47-24,7.12,7.12-7.12,7.12Zm0,19.51,7.12,7.12-7.12,7.12Zm-.2,58,7.12,7.12-7.12,7.12Zm0,19.51,7.12,7.12-7.12,7.12Zm.41,19.7,7.12,7.12L371.4,3529Zm10.47,24-7.12-7.12,7.12-7.12Zm0-19.7-7.12-7.12,7.12-7.12Zm0-19.51-7.12-7.12,7.12-7.12Zm0-38.46-7.12-7.12,7.12-7.12Zm4,77.67v-14.23l7.12,7.12Zm25.32-.08-7.12-7.12,7.12-7.12Zm0-77.59-.52-.52v5.55l.32-.32v14.23l-.32-.32v6.11l.52-.52v14.23l-.52-.52v6.41l.5-.5v14.23l-.5-.5v0h-6.35l3.09,3.09-7.12,7.12v-10.2h-4V3529l-7.12-7.12,3.09-3.09h-4.8v-1.28l-1.62,1.62v-14.23l1.62,1.62V3498l-1.62,1.62v-14.23l1.62,1.62v-8.71l-1.82,1.82v-14.23l1.82,1.82v-8.15l-1.62,1.62v-14.23l1.62,1.62v-4.41h2.1l7-7v7h4v-7l7,7h3.19v3.31l.52-.52Zm-25.55-19.51v-14.23l7.12,7.12Zm25-13.91.33-.33v14.23l-7.12-7.12,2.82-2.82a13.51,13.51,0,0,1-20.8-9.83l-.25.25v-14.23l3.54,3.54a13.56,13.56,0,0,1,3.54-2.86l-3.31-3.31,7.12-7.12v9a13.59,13.59,0,0,1,2.81-.29c.4,0,.8,0,1.19.06v-8.76l7.12,7.12-2.77,2.77a13.54,13.54,0,0,1,3.82,2.58l2.71-2.71v6.37a13.51,13.51,0,0,1-.73,13.46Zm4.32,38.13,7.12,7.12-7.12,7.12Zm.2,19.51,7.12,7.12-7.12,7.12Zm7.09,26.74-7.12,7.12V3505Zm-7.12,26.63v-14.23l7.12,7.12Zm25.29-.56-7.12-7.12,7.12-7.12Zm4,0v-14.23l7.12,7.12Zm10.88-9.19-7.12-7.12,7.12-7.12Zm4.08-38.95v-14.23l7.12,7.12Zm10.18-4.55v14.23l-7.12-7.12Zm-3.15,16.87-7.12,7.12v-14.23Zm3.15,35.82-7.12-7.12,7.12-7.12ZM459.34,3529v-14.23l7.12,7.12Zm10.47-9.75-7.12-7.12,7.12-7.12Zm.08-38.95-7.12-7.12,7.12-7.12Zm3.71,57.89v-14.23l7.12,7.12Zm25.35,0-7.12-7.12,7.12-7.12Zm.44-77.4L494,3455.4a36,36,0,0,1,3.6,12.37l1.75-1.75v14.23l-1.45-1.45v7.67l1-1v14.23l-1-1v7.52l1.22-1.22v14.23l-1.22-1.22v.77h-4.86l2.53,2.53-7.12,7.12v-9.64h-4v9.64l-7.12-7.12,2.53-2.53h-5.17v-.46l-.92.92V3505l.92.92v-7.31l-1.12,1.12v-14.23l1.12,1.12v-7.15l-.83.83v-9c-1-3.92-3.24-6.86-7.51-8l.16.16-7.12,7.12v-7.6a12.76,12.76,0,0,0-4,1.26v6.35l-3.48-3.48a13.59,13.59,0,0,0-2.21,4.19l1.93,1.93-2.91,2.91q-.14,1.43-.14,2.94v3.6l6.81-6.81V3490l-6.81-6.81v6.21l3,3-3,3v6.43l6.72-6.72v14.23l-6.72-6.72v6.4l3,3-3,3v3.71h-3.71l-.45.45v-.45h-4v.45l-.45-.45h-6.34l3.09,3.09-7.12,7.12v-10.2h-4V3529l-7.12-7.12,6.87-6.87v-6.32l-6.44-6.44,6.44-6.44v-6.63L419,3482.7l6.44-6.44v-6.07l-6.44-6.44,6.44-6.44v-6.63l-6.44-6.44,7.12-7.12v7h4v-7l7,7h10.58V3450l1.89,1.89a26.73,26.73,0,0,1,3.11-3.08l-4.57-4.57,7.12-7.12v9.78a27.54,27.54,0,0,1,4-2.19v-7.59l5.75,5.75a28.62,28.62,0,0,1,5.76-.59,32.63,32.63,0,0,1,7.78.89l6.05-6.05v8.38a22.38,22.38,0,0,1,4,2.79v-11.17l7.12,7.12-5.56,5.56a24,24,0,0,1,2.68,3.4l6.64-6.64Zm0-19.19-7.12-7.12,7.12-7.12Zm0-38.46-7.12-7.12,7.12-7.12Zm3.56,135v-14.23l7.12,7.12ZM514,3529l-7.12-7.12,7.12-7.12Zm0-19.51-7.12-7.12,7.12-7.12Zm.23-19.62-7.12-7.12,7.12-7.12Zm.17-19.32-7.12-7.12,7.12-7.12Z" transform="translate(0.5 -158.99)"/><path class="cls-12" d="M1264.87,4049.6h-64.59a5,5,0,0,0-5,5v64.59a5,5,0,0,0,5,5h64.59a5,5,0,0,0,5-5v-64.59A5,5,0,0,0,1264.87,4049.6Zm1.74,6.37v6.77l-3.39-3.39Zm-3.39,21.68,3.39-3.39V4081Zm1.6,4.49-3.39,3.39v-6.77Zm-3.39-5.74v-6.77l3.39,3.39Zm1.79-8,3.39-3.39v6.77Zm-1.79-17,3.39,3.39-3.39,3.39Zm-.1,9,3.39,3.39-3.39,3.39Zm3.48,31.08-3.39,3.39V4088Zm-3.59,5.86,3.39,3.39-3.39,3.39Zm.1,9.28,3.39,3.39-3.39,3.39Zm-6.87-50.86,3.39,3.39-3.39,3.39Zm5,4.64v6.77l-3.39-3.39Zm-5,4.64,3.39,3.39-3.39,3.39Zm-5.29,3.39,3.39-3.39v6.77Zm1.69,4.64-3.39,3.39v-6.77Zm-3.39-21.68,3.39,3.39-3.39,3.39Zm5.08,4.37v6.77l-3.39-3.39Zm-5.18,4.64,3.39,3.39-3.39,3.39Zm-1.8-9v6.77l-3.39-3.39Zm0,18.3v6.77l-3.39-3.39Zm-.1-2.51-3.39-3.39,3.39-3.39Zm-4.88-11.15,3.39,3.39-3.39,3.39Zm-.19,9,3.39,3.39-3.39,3.39Zm-6.88-13.65,0,0v-.18l3.39,3.39-.09.09.06.06-3.39,3.39Zm5.18,4.64v6.77l-3.39-3.39Zm-5.18,4.37,3.39,3.39-3.39,3.39Zm5,4.64v6.77l-3.39-3.39Zm-5,4.64,3.39,3.39-3.39,3.39Zm-5.26-15.06,3.39-3.39v6.77l0,0v.18l-3.39-3.39.09-.09Zm-1.79,1.17,3.39,3.39-3.39,3.39Zm5.15,4.62v6.77l-3.39-3.39Zm-5.18,4.64,3.39,3.39-3.39,3.39Zm5.18,4.64v6.77l-3.39-3.39Zm-12-18.54,3.39,3.39-3.39,3.39Zm5,4.64v6.77l-3.39-3.39Zm-5,4.64,3.39,3.39-3.39,3.39Zm5,4.62v6.77l-3.39-3.39Zm-5.15,4.67,3.39,3.39-3.39,3.39Zm.1,9.28,3.39,3.39-3.39,3.39Zm-1.81-27.84v6.77l-3.39-3.39Zm-12.16,0,3.39,3.39-3.39,3.39Zm-1.9,0v6.77l-3.39-3.39Zm-5,39.26v-6.77L1202,4087Zm4.88-2.4v6.77l-3.39-3.39Zm-3.39-14.91,3.39-3.39v6.77Zm1.89,4.64-3.39,3.39v-6.77Zm1.5-10.54-3.39-3.39,3.39-3.39Zm-5-11.41,3.39,3.39-3.39,3.39Zm0,9.28,3.39,3.39-3.39,3.39Zm-.1,27.58,3.39,3.39-3.39,3.39Zm0,9.28,3.39,3.39-3.39,3.39Zm.19,9.37,3.39,3.39-3.39,3.39Zm5,11.41-3.39-3.39,3.39-3.39Zm0-9.37-3.39-3.39,3.39-3.39Zm0-9.28-3.39-3.39,3.39-3.39Zm0-18.3-3.39-3.39,3.39-3.39Zm1.9,36.95v-6.77l3.39,3.39Zm12,0-3.39-3.39,3.39-3.39Zm0-36.91-.25-.25v2.64l.15-.15v6.77l-.15-.15v2.91l.25-.25V4104l-.25-.25v3.05l.24-.24v6.77l-.24-.24v0h-3l1.47,1.47-3.39,3.39v-4.85h-1.9V4118l-3.39-3.39,1.47-1.47h-2.28v-.61l-.77.77v-6.77l.77.77v-4l-.77.77v-6.77l.77.77v-4.15l-.87.87v-6.77l.87.87v-3.88l-.77.77v-6.77l.77.77v-2.1h1l3.31-3.31v3.31h1.9v-3.31l3.31,3.31h1.52v1.58l.25-.25Zm-12.16-9.28v-6.77l3.39,3.39Zm11.9-6.62.16-.16v6.77l-3.39-3.39,1.34-1.34a6.43,6.43,0,0,1-9.89-4.68l-.12.12v-6.77l1.68,1.68a6.45,6.45,0,0,1,1.68-1.36l-1.58-1.58,3.39-3.39V4060a6.47,6.47,0,0,1,1.33-.14l.57,0v-4.17l3.39,3.39-1.32,1.32a6.44,6.44,0,0,1,1.82,1.23l1.29-1.29v3a6.43,6.43,0,0,1-.35,6.4Zm2.06,18.14,3.39,3.39-3.39,3.39Zm.1,9.28,3.39,3.39-3.39,3.39Zm3.37,12.72-3.39,3.39v-6.77Zm-3.39,12.67v-6.77l3.39,3.39Zm12-.27-3.39-3.39,3.39-3.39Zm1.9,0v-6.77l3.39,3.39Zm5.18-4.37-3.39-3.39,3.39-3.39Zm1.94-18.53v-6.77l3.39,3.39Zm4.84-2.17V4104l-3.39-3.39Zm-1.5,8-3.39,3.39v-6.77Zm1.5,17L1242,4119l3.39-3.39Zm-4.88-4.37v-6.77l3.39,3.39Zm5-4.64-3.39-3.39,3.39-3.39Zm0-18.53-3.39-3.39,3.39-3.39Zm1.76,27.54v-6.77l3.39,3.39Zm12.06,0-3.39-3.39,3.39-3.39Zm.21-36.82L1257,4083a17.1,17.1,0,0,1,1.71,5.88l.83-.83v6.77l-.69-.69v3.65l.48-.48V4104l-.48-.48v3.58l.58-.58v6.77l-.58-.58v.37h-2.31l1.2,1.2-3.39,3.39v-4.59h-1.9v4.59l-3.39-3.39,1.2-1.2h-2.46v-.22l-.44.44v-6.77l.44.44v-3.48l-.53.53v-6.77l.53.53v-3.4l-.4.4v-4.3a4.86,4.86,0,0,0-3.58-3.8l.08.08-3.39,3.39v-3.62a6.07,6.07,0,0,0-1.9.6v3l-1.66-1.66a6.47,6.47,0,0,0-1.05,2l.92.92-1.38,1.38q-.06.68-.06,1.4v1.71l3.24-3.24v6.77l-3.24-3.24v3l1.45,1.45-1.45,1.45v3.06l3.2-3.2v6.77l-3.2-3.2v3l1.41,1.41-1.41,1.41v1.76h-1.76l-.21.21v-.21h-1.9v.21l-.21-.21h-3l1.47,1.47-3.39,3.39v-4.85h-1.9V4118l-3.39-3.39,3.27-3.27v-3l-3.06-3.06,3.06-3.06V4099l-3.06-3.06,3.06-3.06V4090l-3.06-3.06,3.06-3.06v-3.16l-3.06-3.06,3.39-3.39v3.31h1.9v-3.31l3.31,3.31h5v2.79l.9.9a12.72,12.72,0,0,1,1.48-1.47l-2.17-2.17,3.39-3.39v4.65a13.1,13.1,0,0,1,1.9-1v-3.61l2.74,2.74a13.62,13.62,0,0,1,2.74-.28,15.52,15.52,0,0,1,3.7.42l2.88-2.88v4a10.65,10.65,0,0,1,1.9,1.33v-5.31l3.39,3.39-2.64,2.64a11.43,11.43,0,0,1,1.27,1.62l3.16-3.16Zm0-9.13-3.39-3.39,3.39-3.39Zm0-18.3-3.39-3.39,3.39-3.39Zm1.69,64.25v-6.77l3.39,3.39Zm5.27-4.37-3.39-3.39,3.39-3.39Zm0-9.28-3.39-3.39,3.39-3.39Zm.11-9.34-3.39-3.39,3.39-3.39Zm.08-9.19-3.39-3.39,3.39-3.39Z" transform="translate(0.5 -158.99)"/><path d="M523.58,3843.18a32.21,32.21,0,0,0-3.87-4.49l-2.19,2.19v-4.09a31,31,0,0,0-5.5-3.48v7.57l-9.79-9.79.79-.79a46.33,46.33,0,0,0-8.88-.82,39.37,39.37,0,0,0-8,.83l.78.78-9.79,9.79v-7.52a37.85,37.85,0,0,0-5.5,3.27v4.25l-2.39-2.39a36.75,36.75,0,0,0-4.27,4.25l1.84,1.84-9.79,9.79v-19.59l5.39,5.39V3832H446l-8.92,8.92V3832h-5.28v102.74h4.69v-6.63l6.63,6.63h20.63v-7.33l-6.86,6.86v-19.59l6.86,6.87v-8.81l-1.69-1.69,1.69-1.69v-8.85L457,3907.3v-19.59l6.75,6.75v-8.55l-1.57-1.57,1.57-1.57V3880a39.49,39.49,0,0,1,.52-6.6l-7.27,7.27v-19.59l8.26,8.26a18.78,18.78,0,0,1,3-5.78l-6.12-6.12,9.79-9.79v12.59a16.44,16.44,0,0,1,5.5-2.17V3847.7l9.79,9.79-.54.54c5.49,1,8.77,3.94,10.66,8.07v-5l9.79,9.79-7.52,7.52c0,.53,0,1.07,0,1.61v10.52l7.1,7.1-7.1,7.1v12.37l7.38,7.38-7.38,7.38v2.88h4.88l7.4-7.4v7.4h5.5v-7.4l7.4,7.4h6.76v-1l-9.26-9.26,9.26-9.26v-8l-9.55-9.55,9.55-9.55v-8.26l-8.95-8.95,8.27-8.27a48.24,48.24,0,0,0-4.62-14.93l-3.65-3.65Zm-86.47,5,9.79,9.79-9.79,9.79Zm0,26.08,9.79,9.79-9.79,9.79Zm0,26.85,9.79,9.79-9.79,9.79Zm14.29,33.17-9.79-9.79,9.79-9.79Zm.12-27-9.79-9.79,9.79-9.79Zm0-26.59-9.79-9.79,9.79-9.79Zm0-26.34-9.79-9.79,9.79-9.79Zm40.58-.07-9.79-9.79,9.79-9.79Zm5.5-19.59,9.79,9.79-9.79,9.79ZM512,3920.89l-9.79-9.79,9.79-9.79Zm0-26.85-9.79-9.79,9.79-9.79Zm0-26.75-9.79-9.79,9.79-9.79Zm15.26,43.8-9.79,9.79V3901.3Zm0-26.85-9.79,9.79v-19.59Zm0-26.75-9.79,9.79V3847.7Z" transform="translate(0.5 -158.99)"/><path d="M396.45,3841V3832h-5.5V3841L382,3832h-2.4v6.13l6.43,6.43-6.43,6.43v13.51l6.14,6.14-6.14,6.14v14.28l6.43,6.43-6.43,6.43v14l6.43,6.43-6.43,6.43v4H384l6.63-6.63v6.63h5.5v-6.63l6.63,6.63h8.81V3832h-6.2Zm-5.78,79.77-9.79-9.79,9.79-9.79Zm.28-26.85-9.79-9.79,9.79-9.79Zm0-26.85-9.79-9.79,9.79-9.79Zm5.5-19.59,9.79,9.79-9.79,9.79Zm14.41,13.42v19.59l-9.79-9.79Zm-14.41,13.42,9.79,9.79-9.79,9.79Zm-.28,26.85,9.79,9.79-9.79,9.79Zm14.94,33.17-9.79-9.79,9.79-9.79Zm0-27-9.79-9.79,9.79-9.79Zm0-52.93-9.79-9.79,9.79-9.79Z" transform="translate(0.5 -158.99)"/><path d="M411.41,3800.68l-9.79-9.79,6-6a18.56,18.56,0,0,0-5.67-3.13l-5.53,5.52v-6.51H396a18.61,18.61,0,0,0-5,.69v5.83l-4.12-4.12a18.69,18.69,0,0,0-4.86,4l3.8,3.8-8.42,8.42v0A18.61,18.61,0,0,0,401.79,3817l9.07-9.07v2.54a18.62,18.62,0,0,0,.56-21.49Zm-20.47,13.42-9.79-9.79,9.79-9.79Zm5.5,0v-19.59l9.79,9.79Z" transform="translate(0.5 -158.99)"/><path class="cls-12" d="M1229.37,3920a15.1,15.1,0,0,0-1.82-2.11l-1,1V3917a14.54,14.54,0,0,0-2.58-1.63v3.55l-4.59-4.59.37-.37a21.72,21.72,0,0,0-4.16-.39,18.46,18.46,0,0,0-3.74.39l.37.37-4.59,4.59v-3.53A17.75,17.75,0,0,0,1205,3917v2l-1.12-1.12a17.23,17.23,0,0,0-2,2l.86.86-4.59,4.59v-9.19l2.53,2.53v-3.82H1193l-4.18,4.18v-4.18h-2.48V3963h2.2v-3.11l3.11,3.11h9.67v-3.44l-3.22,3.22v-9.19l3.22,3.22v-4.13l-.79-.79.79-.79v-4.15l-3.16,3.16v-9.19l3.16,3.16v-4l-.74-.74.74-.74v-1.28a18.52,18.52,0,0,1,.24-3.1l-3.41,3.41v-9.19l3.88,3.88a8.8,8.8,0,0,1,1.42-2.71l-2.87-2.87,4.59-4.59v5.9a7.71,7.71,0,0,1,2.58-1v-4.88l4.59,4.59-.25.25a6.37,6.37,0,0,1,5,3.79v-2.34l4.59,4.59-3.53,3.53c0,.25,0,.5,0,.75v4.93l3.33,3.33-3.33,3.33v5.8l3.46,3.46-3.46,3.46V3963h2.29l3.47-3.47V3963h2.58v-3.47L1230,3963h3.17v-.47l-4.34-4.34,4.34-4.34v-3.77l-4.48-4.48,4.48-4.48v-3.87L1229,3933l3.88-3.88a22.62,22.62,0,0,0-2.17-7l-1.71-1.71Zm-40.55,2.36,4.59,4.59-4.59,4.59Zm0,12.23,4.59,4.59-4.59,4.59Zm0,12.59,4.59,4.59-4.59,4.59Zm6.7,15.55-4.59-4.59,4.59-4.59Zm.05-12.66-4.59-4.59,4.59-4.59Zm0-12.47L1191,3933l4.59-4.59Zm0-12.35-4.59-4.59,4.59-4.59Zm19,0-4.59-4.59,4.59-4.59Zm2.58-9.19,4.59,4.59-4.59,4.59Zm6.74,40.4-4.59-4.59,4.59-4.59Zm0-12.59-4.59-4.59,4.59-4.59Zm0-12.54-4.59-4.59,4.59-4.59Zm7.15,20.54-4.59,4.59v-9.19Zm0-12.59-4.59,4.59v-9.19Zm0-12.54-4.59,4.59v-9.19Z" transform="translate(0.5 -158.99)"/><path class="cls-12" d="M1169.75,3919v-4.18h-2.58V3919l-4.18-4.18h-1.13v2.87l3,3-3,3V3930l2.88,2.88-2.88,2.88v6.7l3,3-3,3v6.56l3,3-3,3V3963h2.05l3.11-3.11V3963h2.58v-3.11l3.11,3.11h4.13V3914.8h-2.91Zm-2.71,37.41-4.59-4.59,4.59-4.59Zm.13-12.59-4.59-4.59,4.59-4.59Zm0-12.59-4.59-4.59,4.59-4.59Zm2.58-9.19,4.59,4.59-4.59,4.59Zm6.76,6.29v9.19l-4.59-4.59Zm-6.76,6.29,4.59,4.59-4.59,4.59Zm-.13,12.59,4.59,4.59-4.59,4.59Zm7,15.55-4.59-4.59,4.59-4.59Zm0-12.66-4.59-4.59,4.59-4.59Zm0-24.82-4.59-4.59,4.59-4.59Z" transform="translate(0.5 -158.99)"/><path class="cls-12" d="M1176.77,3900.1l-4.59-4.59,2.82-2.82a8.7,8.7,0,0,0-2.66-1.47l-2.59,2.59v-3.05h-.23a8.72,8.72,0,0,0-2.35.32v2.74l-1.93-1.93a8.76,8.76,0,0,0-2.28,1.85l1.78,1.78-3.95,3.95v0a8.73,8.73,0,0,0,11.46,8.29l4.25-4.25v1.19a8.73,8.73,0,0,0,.26-10.08Zm-9.6,6.29-4.59-4.59,4.59-4.59Zm2.58,0v-9.19l4.59,4.59Z" transform="translate(0.5 -158.99)"/><rect class="cls-58" x="365.03" y="3439.32" width="156.37" height="156.37" rx="17.92" ry="17.92"/><path d="M492.23,3665.34a23.36,23.36,0,0,0-2.81-3.26l-1.59,1.59v-3a22.49,22.49,0,0,0-4-2.53v5.49l-7.1-7.1.57-.57a33.6,33.6,0,0,0-6.44-.6,28.55,28.55,0,0,0-5.79.6l.57.57-7.1,7.1v-5.46a27.44,27.44,0,0,0-4,2.37v3.08l-1.73-1.73a26.65,26.65,0,0,0-3.1,3.08l1.34,1.34-7.1,7.1v-14.2l3.91,3.91v-5.91H436l-6.47,6.47v-6.47H425.7v74.51h3.4V3727l4.81,4.81h15v-5.31l-5,5v-14.2l5,5v-6.39l-1.22-1.22,1.22-1.22v-6.42l-4.89,4.89v-14.2l4.89,4.89v-6.2l-1.14-1.14,1.14-1.14v-2a28.63,28.63,0,0,1,.38-4.79l-5.27,5.27v-14.2l6,6a13.62,13.62,0,0,1,2.2-4.19l-4.44-4.44,7.1-7.1v9.13a11.92,11.92,0,0,1,4-1.58v-7.55l7.1,7.1-.39.39a9.86,9.86,0,0,1,7.73,5.85v-3.61l7.1,7.1-5.45,5.45c0,.39,0,.77,0,1.17v7.63l5.15,5.15-5.15,5.15v9l5.35,5.35-5.35,5.35v2.09h3.54l5.37-5.37v5.37h4v-5.37l5.37,5.37h4.9V3731l-6.72-6.72,6.72-6.72v-5.83l-6.92-6.92,6.92-6.92v-6l-6.49-6.49,6-6a35,35,0,0,0-3.35-10.82l-2.65-2.65ZM429.53,3669l7.1,7.1-7.1,7.1Zm0,18.91,7.1,7.1-7.1,7.1Zm0,19.47,7.1,7.1-7.1,7.1Zm10.36,24.05-7.1-7.1,7.1-7.1Zm.09-19.58-7.1-7.1,7.1-7.1Zm0-19.28-7.1-7.1,7.1-7.1Zm0-19.1-7.1-7.1,7.1-7.1Zm29.43-.05-7.1-7.1,7.1-7.1Zm4-14.2,7.1,7.1-7.1,7.1Zm10.42,62.49-7.1-7.1,7.1-7.1Zm0-19.47-7.1-7.1,7.1-7.1Zm0-19.4-7.1-7.1,7.1-7.1Zm11.06,31.76-7.1,7.1v-14.2Zm0-19.47-7.1,7.1V3688Zm0-19.4-7.1,7.1v-14.2Z" transform="translate(0.5 -158.99)"/><path d="M400,3663.72v-6.47h-4v6.47l-6.47-6.47h-1.74v4.44l4.66,4.66-4.66,4.66v9.79l4.46,4.46-4.46,4.46v10.35l4.66,4.66-4.66,4.66v10.15l4.66,4.66-4.66,4.66v2.89H391l4.81-4.81v4.81h4V3727l4.81,4.81H411v-74.51h-4.5Zm-4.19,57.85-7.1-7.1,7.1-7.1Zm.2-19.47-7.1-7.1,7.1-7.1Zm0-19.47-7.1-7.1,7.1-7.1Zm4-14.2,7.1,7.1-7.1,7.1Zm10.45,9.73v14.2l-7.1-7.1ZM400,3687.9l7.1,7.1-7.1,7.1Zm-.2,19.47,7.1,7.1-7.1,7.1Zm10.83,24.05-7.1-7.1,7.1-7.1Zm0-19.58-7.1-7.1,7.1-7.1Zm0-38.38-7.1-7.1,7.1-7.1Z" transform="translate(0.5 -158.99)"/><path d="M410.89,3634.52l-7.1-7.1,4.37-4.37a13.46,13.46,0,0,0-4.12-2.27l-4,4v-4.72h-.35a13.49,13.49,0,0,0-3.64.5v4.23l-3-3a13.55,13.55,0,0,0-3.52,2.86l2.76,2.76-6.1,6.1v0a13.5,13.5,0,0,0,17.73,12.82l6.58-6.58v1.84a13.5,13.5,0,0,0,.4-15.59ZM396,3644.25l-7.1-7.1,7.1-7.1Zm4,0V3630l7.1,7.1Z" transform="translate(0.5 -158.99)"/><path d="M750.21,3385.25H613.29a10.57,10.57,0,0,0-10.54,10.54v136.92a10.57,10.57,0,0,0,10.54,10.54h74.1v-11l-.49-.49.49-.49v-6l-3.87,3.87v-14.35l3.87,3.87v-5.89l-.08-.08.08-.08v-6.45l-3.87,3.87v-14.35l3.87,3.87V3493l-.08-.08.08-.08v-6.49l-3.79,3.79V3482h-4v8.18L672.4,3483l1-1h-6.85v-23.94H669v-11.18l7.18,7.18-4,4h5.67l1.72-1.72v1.72h4v-1.72l1.72,1.72h2.07v-10.45l-3.79,3.79V3437l3.79,3.79v-6.24l-.26-.26.26-.26v-2.58a18.19,18.19,0,0,1,.43-3.9l-4.07,4.07v-14.35l5.69,5.69a22.29,22.29,0,0,1,2.32-3.72l-4.63-4.63,7.18-7.18v9a24.79,24.79,0,0,1,4-3.08v-5.92l3.94,3.94a26,26,0,0,1,4.86-1.39l-5.21-5.21,7.18-7.18v12.11a27.33,27.33,0,0,1,3-.16h1.08v-11.94l7.18,7.18-4.76,4.76H722l2.1-2.1v2.1h4v-2.1l2.1,2.1h6V3420l2.71-2.71v14.35l-2.71-2.71v2.53h-3.92l2.84,2.84-7.18,7.18v-10h-4v10l-7.18-7.18,2.84-2.84h-.44a7.16,7.16,0,0,0-7.06,7.15v19.42h1.14v-1.72l1.72,1.72h6.19l-4.38-4.38,7.18-7.18v11.56h4V3446.5l7.18,7.18-4.38,4.38h4.87l-.23,1.81,3.53-3.53v14.35l-4.35-4.35-.18,1.44-.54,4.25,1.25,1.25-1.61,1.61-.88,6.92,5.87-5.87v14.35l-7.18-7.18,1.12-1.12H719l1.12,1.12-7.18,7.18V3482h-.84v61.26h38.15a10.57,10.57,0,0,0,10.54-10.54V3395.79A10.57,10.57,0,0,0,750.21,3385.25Zm-70.72,143.82-7.18-7.18,7.18-7.18Zm0-19.11-7.18-7.18,7.18-7.18ZM669,3485.66l7.18,7.18L669,3500Zm-.44,19.79,7.18,7.18-7.18,7.18Zm-.06,19.11,7.18,7.18-7.18,7.18Zm-3.74-136.7v14.35L657.6,3395Zm-10.56,9.84,7.18,7.18-7.18,7.18Zm10.5,9.78v14.35l-7.18-7.18Zm-10.91,9.89,7.18,7.18-7.18,7.18ZM654,3437l7.18,7.18-7.18,7.18Zm-14.8-49.18,7.18,7.18-7.18,7.18Zm3.39,75.47,7.18-7.18v14.35Zm3.79,9.84-7.18,7.18V3466Zm-7.18-12.5v-14.35l7.18,7.18Zm3.38-36.12,7.18-7.18v14.35Zm3.79,9.84-7.18,7.18V3427.2Zm-7.18-12.5v-14.35l7.18,7.18Zm-.21,63.77,7.18,7.18L639,3500Zm-3.83-97.8v14.35L628,3395Zm-25.35,73.37v-14.35l7.18,7.18Zm10.35-5.08v14.35l-7.18-7.18Zm-7.18-31.6,7.18-7.18v14.35Zm4,9.84-7.18,7.18V3427.2Zm3.17-22.33-7.18-7.18,7.18-7.18Zm-10.56-24.19,7.18,7.18-7.18,7.18Zm0,19.67,7.18,7.18-7.18,7.18Zm-.2,58.45,7.18,7.18-7.18,7.18Zm0,19.67,7.18,7.18-7.18,7.18Zm.41,19.87,7.18,7.18-7.18,7.18Zm0,34v-14.35l7.18,7.18Zm10.56-9.84-7.18-7.18,7.18-7.18Zm0-19.87-7.18-7.18,7.18-7.18Zm0-19.67-7.18-7.18,7.18-7.18Zm0-38.78-7.18-7.18,7.18-7.18Zm3.82-53.7,7.18,7.18-7.18,7.18Zm0,34v-14.35l7.18,7.18Zm.21,5.32,7.18,7.18-7.18,7.18Zm-.21,19.11,7.18,7.18-7.18,7.18Zm.21,53.7v-14.35l7.18,7.18Zm10.53-4.4v14.35l-7.18-7.18Zm-10.53-29.63,7.18,7.18-7.18,7.18Zm0,39.54,7.18,7.18-7.18,7.18Zm10.56,25-7.18-7.18L635,3526Zm0-40.38-7.18-7.18,7.18-7.18Zm.21-19.67-7.18-7.18,7.18-7.18Zm0-19.67-7.18-7.18,7.18-7.18Zm0-19.11-7.18-7.18,7.18-7.18Zm0-19.67L628,3414.7l7.18-7.18Zm3.8,83.56,7.18,7.18L639,3519.8Zm0,34.94V3526l7.18,7.18ZM650,3529.63l-7.18-7.18,7.18-7.18Zm0-19.67-7.18-7.18,7.18-7.18Zm0-19.79-7.18-7.18,7.18-7.18Zm0-38.78-7.18-7.18L650,3437Zm.2-39.35-7.18-7.18,7.18-7.18Zm3.62,44.1,7.18,7.18-7.18,7.18Zm.21,19.67,7.18,7.18-7.18,7.18Zm7.15,27L654,3510v-14.35Zm-7.18,12.5,7.18,7.18-7.18,7.18Zm10.5,23.62-7.18-7.18,7.18-7.18Zm.06-19.11-7.18-7.18,7.18-7.18ZM665,3500l-7.18-7.18,7.18-7.18Zm0-19.67-7.18-7.18L665,3466Zm0-19.11-7.18-7.18,7.18-7.18Zm0-19.67-7.18-7.18,7.18-7.18Zm3.82-53.7L676,3395l-7.18,7.18Zm-.06,34v-14.35l7.18,7.18Zm.27,5.37,7.18,7.18-7.18,7.18Zm10.56,24.19-7.18-7.18,7.18-7.18Zm.15-19.73-7.18-7.18,7.18-7.18Zm0-19.67-7.18-7.18,7.18-7.18Zm4,0v-14.35l7.18,7.18Zm11-9.27-7.18-7.18,7.18-7.18Zm4,0v-14.35l7.18,7.18Zm25.35-.57-7.18-7.18,7.18-7.18Zm4-14.35,7.18,7.18-7.18,7.18ZM738.7,3412l-7.18-7.18,7.18-7.18Zm-25.35,39.35V3437l7.18,7.18Zm14.56,34.43,7.18,7.18-7.18,7.18Zm0,19.11,7.18,7.18-7.18,7.18Zm-14.8-9.27,7.18,7.18-7.18,7.18Zm-.21,19.11,7.18,7.18-7.18,7.18Zm11,24.19-7.18-7.18,7.18-7.18Zm0-19.67-7.18-7.18,7.18-7.18Zm0-19.11-7.18-7.18,7.18-7.18Zm4,38.78v-14.35l7.18,7.18Zm10.56-9.84-7.18-7.18,7.18-7.18Zm.21-19.11-7.18-7.18,7.18-7.18Zm.23-58.95-7.18-7.18,7.18-7.18Zm15-62.65v14.35l-7.18-7.18Zm-7.18,46,7.18-7.18v14.35Zm3.38,9.51-7.18,7.18v-14.35Zm-7.18-12.17v-14.35l7.18,7.18Zm3.79-17,7.18-7.18v14.35Zm-4-17,7.18,7.18-7.18,7.18Zm7.38,65.87-7.18,7.18v-14.35Zm-7.62,12.42,7.18,7.18-7.18,7.18Zm.21,19.67,7.18,7.18L742.7,3510Zm-.21,19.11,7.18,7.18-7.18,7.18Zm11.18,24.19-7.18-7.18,7.18-7.18Zm0-19.11-7.18-7.18,7.18-7.18Zm0-19.67-7.18-7.18,7.18-7.18Zm.23-19.79-7.18-7.18,7.18-7.18Zm.18-19.48-7.18-7.18,7.18-7.18Z" transform="translate(0.5 -158.99)"/><path class="cls-12" d="M1377.42,4049.57h-64.61a5,5,0,0,0-5,5v64.61a5,5,0,0,0,5,5h35v-5.21l-.23-.23.23-.23v-2.85l-1.83,1.83v-6.77l1.83,1.83v-2.78l0,0,0,0v-3l-1.83,1.83v-6.77l1.83,1.83v-3l0,0,0,0v-3.06l-1.79,1.79v-3.86h-1.9v3.86l-3.39-3.39.47-.47h-3.23v-11.3h1.17v-5.28l3.39,3.39-1.89,1.89h2.67l.81-.81v.81h1.9v-.81l.81.81h1V4079l-1.79,1.79V4074l1.79,1.79v-2.95l-.12-.12.12-.12v-1.22a8.58,8.58,0,0,1,.2-1.84l-1.92,1.92v-6.77l2.69,2.69a10.52,10.52,0,0,1,1.1-1.76l-2.19-2.19,3.39-3.39v4.25a11.7,11.7,0,0,1,1.9-1.45v-2.79l1.86,1.86a12.27,12.27,0,0,1,2.29-.66l-2.46-2.46,3.39-3.39v5.71a12.9,12.9,0,0,1,1.39-.08h.51v-5.64l3.39,3.39-2.25,2.25h3l1-1v1h1.9v-1l1,1h2.81V4066l1.28-1.28v6.77l-1.28-1.28v1.2H1369l1.34,1.34-3.39,3.39v-4.72H1365v4.72l-3.39-3.39,1.34-1.34h-.21a3.38,3.38,0,0,0-3.33,3.37v9.16h.54v-.81l.81.81h2.92l-2.07-2.07,3.39-3.39v5.45h1.9v-5.45l3.39,3.39-2.07,2.07h2.3l-.11.85,1.67-1.67v6.77l-2.05-2.05-.09.68-.25,2,.59.59-.76.76-.41,3.26,2.77-2.77v6.77l-3.39-3.39.53-.53h-6.34l.53.53-3.39,3.39v-3.91h-.4v28.91h18a5,5,0,0,0,5-5v-64.61A5,5,0,0,0,1377.42,4049.57ZM1344,4117.44l-3.39-3.39,3.39-3.39Zm0-9-3.39-3.39,3.39-3.39ZM1339.1,4097l3.39,3.39-3.39,3.39Zm-.21,9.34,3.39,3.39-3.39,3.39Zm0,9,3.39,3.39-3.39,3.39Zm-1.77-64.51v6.77l-3.39-3.39Zm-5,4.64,3.39,3.39-3.39,3.39Zm5,4.62v6.77l-3.39-3.39Zm-5.15,4.67,3.39,3.39-3.39,3.39Zm.1,9.28,3.39,3.39-3.39,3.39Zm-7-23.21,3.39,3.39-3.39,3.39Zm1.6,35.61L1330,4083v6.77Zm1.79,4.64-3.39,3.39v-6.77Zm-3.39-5.9v-6.77l3.39,3.39Zm1.6-17,3.39-3.39v6.77Zm1.79,4.64-3.39,3.39v-6.77Zm-3.39-5.9v-6.77l3.39,3.39Zm-.1,30.1,3.39,3.39-3.39,3.39Zm-1.81-46.15v6.77l-3.39-3.39Zm-12,34.63v-6.77l3.39,3.39Zm4.89-2.4v6.77l-3.39-3.39Zm-3.39-14.91,3.39-3.39v6.77Zm1.89,4.64-3.39,3.39v-6.77Zm1.5-10.54-3.39-3.39,3.39-3.39Zm-5-11.42,3.39,3.39-3.39,3.39Zm0,9.28,3.39,3.39-3.39,3.39Zm-.1,27.58,3.39,3.39-3.39,3.39Zm0,9.28,3.39,3.39-3.39,3.39Zm.19,9.38,3.39,3.39-3.39,3.39Zm0,16.06v-6.77l3.39,3.39Zm5-4.64-3.39-3.39,3.39-3.39Zm0-9.38-3.39-3.39,3.39-3.39Zm0-9.28-3.39-3.39,3.39-3.39Zm0-18.3-3.39-3.39,3.39-3.39Zm1.8-25.34,3.39,3.39-3.39,3.39Zm0,16.06v-6.77l3.39,3.39Zm.1,2.51,3.39,3.39-3.39,3.39Zm-.1,9,3.39,3.39-3.39,3.39Zm.1,25.34v-6.77l3.39,3.39Zm5-2.08v6.77l-3.39-3.39Zm-5-14,3.39,3.39-3.39,3.39Zm0,18.66,3.39,3.39-3.39,3.39Zm5,11.81-3.39-3.39L1323,4116Zm0-19.06-3.39-3.39L1323,4097Zm.1-9.28-3.39-3.39,3.39-3.39Zm0-9.28-3.39-3.39,3.39-3.39Zm0-9-3.39-3.39,3.39-3.39Zm0-9.28-3.39-3.39,3.39-3.39Zm1.79,39.43,3.39,3.39-3.39,3.39Zm0,16.49V4116l3.39,3.39Zm5.17-5.07-3.39-3.39,3.39-3.39Zm0-9.28-3.39-3.39,3.39-3.39Zm0-9.34-3.39-3.39,3.39-3.39Zm0-18.3-3.39-3.39,3.39-3.39Zm.1-18.57-3.39-3.39,3.39-3.39Zm1.71,20.81,3.39,3.39-3.39,3.39Zm.1,9.28,3.39,3.39-3.39,3.39Zm3.38,12.73-3.39,3.39v-6.77Zm-3.39,5.9,3.39,3.39-3.39,3.39Zm5,11.15-3.39-3.39,3.39-3.39Zm0-9-3.39-3.39,3.39-3.39Zm.21-9.34-3.39-3.39,3.39-3.39Zm0-9.28-3.39-3.39,3.39-3.39Zm0-9-3.39-3.39,3.39-3.39Zm0-9.28-3.39-3.39,3.39-3.39Zm1.8-25.34,3.39,3.39-3.39,3.39Zm0,16v-6.77l3.39,3.39Zm.13,2.54,3.39,3.39-3.39,3.39Zm5,11.42-3.39-3.39,3.39-3.39Zm.07-9.31-3.39-3.39,3.39-3.39Zm0-9.28-3.39-3.39,3.39-3.39Zm1.9,0v-6.77l3.39,3.39Zm5.18-4.37-3.39-3.39,3.39-3.39Zm1.9,0V4051l3.39,3.39Zm12-.27-3.39-3.39,3.39-3.39Zm1.9-6.77,3.39,3.39-3.39,3.39Zm5,11.42-3.39-3.39,3.39-3.39Zm-12,18.57V4074l3.39,3.39Zm6.87,16.25,3.39,3.39-3.39,3.39Zm0,9,3.39,3.39-3.39,3.39Zm-7-4.37,3.39,3.39-3.39,3.39Zm-.1,9,3.39,3.39-3.39,3.39Zm5.18,11.42-3.39-3.39,3.39-3.39Zm0-9.28-3.39-3.39L1365,4106Zm0-9-3.39-3.39L1365,4097Zm1.9,18.3v-6.77l3.39,3.39Zm5-4.64-3.39-3.39,3.39-3.39Zm.1-9-3.39-3.39,3.39-3.39Zm.11-27.82-3.39-3.39,3.39-3.39Zm7.08-29.56v6.77l-3.39-3.39Zm-3.39,21.69,3.39-3.39v6.77Zm1.6,4.49-3.39,3.39v-6.77Zm-3.39-5.74v-6.77l3.39,3.39Zm1.79-8,3.39-3.39v6.77Zm-1.89-8,3.39,3.39-3.39,3.39Zm3.48,31.09-3.39,3.39v-6.77Zm-3.59,5.86,3.39,3.39-3.39,3.39Zm.1,9.28,3.39,3.39-3.39,3.39Zm-.1,9,3.39,3.39-3.39,3.39Zm5.27,11.42-3.39-3.39,3.39-3.39Zm0-9-3.39-3.39,3.39-3.39Zm0-9.28-3.39-3.39,3.39-3.39Zm.11-9.34-3.39-3.39,3.39-3.39Zm.08-9.19-3.39-3.39,3.39-3.39Z" transform="translate(0.5 -158.99)"/><rect class="cls-58" x="598.35" y="3439.32" width="156.5" height="156.5" rx="17.92" ry="17.92"/><polygon points="730.64 3465.09 730.64 3463.2 728.75 3463.2 730.64 3465.09"/><path d="M682.54,3754.61v-8.23l7.11,7.11-1.12,1.12h13.34l-1.12-1.12,5.49-5.49v-8.36l-5.08-5.08,5.08-5.08v-9.33l-5.08-5.08,5.08-5.08v-9.34l-5-5,7.11-7.11v5.36h4v-5.36l5.36,5.36h8.85l.24-1.92v-13.18l1.48,1.48.06-.46.52-4.12.55-4.32-2.47,2.47v-3.66h-4v3.66l-3.66-3.66h-5.81l6,6-7.11,7.11V3670.2h-4v13.09l-7.11-7.11,6-6h-1v-7.93L701,3657l5.26-5.26V3651a7,7,0,0,1,5.84-6.89v-13.66l7.11,7.11-6.48,6.48.52,0v-.09h6l3.73-3.73v3.73h4v-3.73l3.2,3.2v-11.88l-3.41,3.41v-12.7h-4v12.7l-7.11-7.11,5.6-5.6H716l-3.52,3.52v-3.52h-.66c-1.15,0-2.25,0-3.33.12v3.4l-3.07-3.07a34.33,34.33,0,0,0-4.78,1.05l4.09,4.09-7.11,7.11v-10.12a26.13,26.13,0,0,0-4,2.1v8l-4.39-4.39a24.15,24.15,0,0,0-2.81,3.58l3.45,3.45-7.11,7.11v-1.78q-.12.51-.23,1a38.53,38.53,0,0,0-.74,7.65v18.66H679v13.46l-7.11-7.11,6.35-6.35h-6.39l-3.72,3.72v-3.72h-4v3.72l-3-3v10.56l2.82-2.82v14.22l-2.82-2.82v3.89H673.5l5.54-5.54v5.54h2.76v60.7Zm40.26-75.8V3693l-7.11-7.11Zm-14.71-48.4v14.22l-7.11-7.11Zm-10.46,9.74,7.11,7.11-7.11,7.11Zm-.15,19.54,7.11,7.11-7.11,7.11Zm0,19.11,7.11,7.11-7.11,7.11Zm0,19.3,7.11,7.11-7.11,7.11Zm-.08,19.6,7.11,7.11-7.11,7.11Zm0,18.93,7.11,7.11-7.11,7.11Zm-4,14.22-7.11-7.11,7.11-7.11Zm0-18.93-7.11-7.11,7.11-7.11Zm.09-19.6-7.11-7.11,7.11-7.11Zm0-19.3-7.11-7.11,7.11-7.11Zm0-19.11-7.11-7.11,7.11-7.11Zm.15-33.76v14.22l-7.11-7.11ZM683,3650l7.11,7.11-7.11,7.11Zm0,19.49,7.11,7.11-7.11,7.11Zm0,18.93,7.11,7.11-7.11,7.11Zm0,19.49,7.11,7.11-7.11,7.11Zm-.43,19.6,7.11,7.11-7.11,7.11ZM668,3692.84v-14.22l7.11,7.11Z" transform="translate(0.5 -158.99)"/><polygon points="737.62 3625.78 737.62 3623.61 735.45 3623.61 737.62 3625.78"/><path d="M682.63,3934.18v-9.42l8.14,8.14-1.28,1.28h15.27l-1.28-1.28,6.28-6.28V3917l-5.81-5.81,5.81-5.81v-10.68l-5.81-5.81,5.81-5.81v-10.69l-5.72-5.72,8.14-8.14v6.13h4.57v-6.13l6.13,6.13H733l.28-2.19v-15.09l1.7,1.7.07-.53.6-4.72.63-4.94-2.82,2.82v-4.19h-4.57v4.19l-4.19-4.19H718l6.84,6.84-8.14,8.14v-15h-4.57v15L704,3844.4l6.84-6.84h-1.13v-9.08l-6-6,6-6v-.9a8,8,0,0,1,6.69-7.89V3792l8.14,8.14-7.41,7.41c.2,0,.39,0,.59,0v-.1h6.86l4.27-4.27v4.27h4.57v-4.27l3.66,3.66v-13.59l-3.9,3.9V3782.6h-4.57v14.54l-8.14-8.14,6.41-6.41h-6l-4,4v-4h-.76c-1.31,0-2.58.05-3.81.14v3.89l-3.51-3.51a39.3,39.3,0,0,0-5.47,1.21L708,3789l-8.14,8.14v-11.58a29.91,29.91,0,0,0-4.57,2.4v9.18l-5-5a27.65,27.65,0,0,0-3.22,4.1l3.94,3.94-8.14,8.14v-2q-.14.59-.26,1.19a44.1,44.1,0,0,0-.85,8.76v21.36h-3.16V3853l-8.14-8.14,7.27-7.27h-7.32l-4.25,4.25v-4.25h-4.57v4.25l-3.47-3.47v12.09l3.23-3.23v16.27l-3.23-3.23v4.46h14.13l6.35-6.35v6.35h3.16v69.48Zm46.09-86.76v16.27l-8.14-8.14ZM711.87,3792v16.27l-8.14-8.14Zm-12,11.15,8.14,8.14-8.14,8.14Zm-.17,22.36,8.14,8.14-8.14,8.14Zm0,21.88,8.14,8.14-8.14,8.14Zm0,22.09,8.14,8.14-8.14,8.14Zm-.1,22.44,8.14,8.14-8.14,8.14Zm0,21.66,8.14,8.14-8.14,8.14Zm-4.57,16.27-8.14-8.14,8.14-8.14Zm0-21.66-8.14-8.14,8.14-8.14Zm.1-22.44-8.14-8.14,8.14-8.14Zm0-22.09-8.14-8.14,8.14-8.14Zm0-21.88-8.14-8.14,8.14-8.14Zm.17-38.64v16.27l-8.14-8.14Zm-12.14,11.21,8.14,8.14-8.14,8.14Zm0,22.31,8.14,8.14-8.14,8.14Zm0,21.66,8.14,8.14-8.14,8.14Zm0,22.31,8.14,8.14-8.14,8.14Zm-.5,22.44,8.14,8.14-8.14,8.14Zm-16.75-39.62V3847.2l8.14,8.14Z" transform="translate(0.5 -158.99)"/><polygon class="cls-12" points="1304.67 3734.5 1304.67 3733.49 1303.67 3733.49 1304.67 3734.5"/><path class="cls-12" d="M1278.83,3963v-4.38l3.78,3.78-.6.6h7.1l-.6-.6,2.92-2.92V3955l-2.7-2.7,2.7-2.7v-5l-2.7-2.7,2.7-2.7v-5l-2.66-2.66,3.78-3.78v2.85h2.13v-2.85l2.85,2.85h4.71l.13-1v-7l.79.79,0-.25.28-2.19.29-2.3-1.31,1.31v-2h-2.12v2l-2-2h-3.09l3.18,3.18-3.78,3.78v-7h-2.13v7l-3.78-3.78L1292,3918h-.52v-4.22l-2.8-2.8,2.8-2.8v-.42a3.73,3.73,0,0,1,3.11-3.67v-7.27l3.78,3.78-3.45,3.45h.28v0h3.19l2-2v2h2.12v-2l1.7,1.7v-6.32l-1.81,1.81v-6.76h-2.13v6.76l-3.78-3.78,3-3h-2.78l-1.87,1.87v-1.87h-.35c-.61,0-1.2,0-1.77.06v1.81l-1.63-1.63a18.28,18.28,0,0,0-2.54.56l2.18,2.18-3.78,3.78v-5.38a13.91,13.91,0,0,0-2.13,1.12v4.27l-2.34-2.34a12.86,12.86,0,0,0-1.5,1.91l1.83,1.83-3.78,3.78v-.95q-.06.27-.12.55a20.51,20.51,0,0,0-.39,4.07V3918H1277v7.16l-3.78-3.78,3.38-3.38h-3.4l-2,2v-2h-2.12v2l-1.61-1.61V3924l1.5-1.5v7.57l-1.5-1.5v2.07H1274l3-3v3h1.47V3963Zm21.43-40.35v7.57l-3.78-3.78Zm-7.83-25.76v7.57l-3.78-3.78Zm-5.57,5.19,3.78,3.78-3.78,3.78Zm-.08,10.4,3.78,3.78-3.78,3.78Zm0,10.17,3.78,3.78-3.78,3.78Zm0,10.27,3.78,3.78-3.78,3.78Zm0,10.43,3.78,3.78-3.78,3.78Zm0,10.07,3.78,3.78-3.78,3.78Zm-2.13,7.57-3.78-3.78,3.78-3.78Zm0-10.07-3.78-3.78,3.78-3.78Zm0-10.43-3.78-3.78,3.78-3.78Zm0-10.27-3.78-3.78,3.78-3.78Zm0-10.17-3.78-3.78,3.78-3.78Zm.08-18v7.57l-3.78-3.78Zm-5.64,5.21,3.78,3.78-3.78,3.78Zm0,10.37,3.78,3.78-3.78,3.78Zm0,10.07,3.78,3.78-3.78,3.78Zm0,10.37,3.78,3.78-3.78,3.78Zm-.23,10.43,3.78,3.78-3.78,3.78Zm-7.79-18.43v-7.57l3.78,3.78Z" transform="translate(0.5 -158.99)"/><text class="cls-44" transform="translate(39.24 3918.8)"><tspan class="cls-59">C</tspan><tspan x="11.95" y="0">o</tspan><tspan class="cls-50" x="23.48" y="0">n</tspan><tspan x="35.05" y="0">tinui</tspan><tspan class="cls-50" x="75.05" y="0">n</tspan><tspan class="cls-60" x="86.62" y="0">t</tspan><tspan x="93.76" y="0">y </tspan><tspan class="cls-61" x="108.11" y="0">b</tspan><tspan class="cls-62" x="119.91" y="0">y using p</tspan><tspan class="cls-50" x="198.85" y="0">a</tspan><tspan x="208.88" y="0">t</tspan><tspan class="cls-49" x="215.83" y="0">t</tspan><tspan x="222.66" y="0">e</tspan><tspan class="cls-63" x="233.18" y="0">r</tspan><tspan x="240.13" y="0">n in </tspan><tspan class="cls-45" x="277.26" y="0">r</tspan><tspan class="cls-46" x="284.02" y="0">aind</tspan><tspan class="cls-52" x="322.55" y="0">r</tspan><tspan x="329.21" y="0">op</tspan><tspan class="cls-59" x="352.69" y="0">s</tspan><tspan x="360.77" y="0">, spa</tspan><tspan class="cls-49" x="399.96" y="0">c</tspan><tspan x="409.24" y="0">e needle </tspan><tspan class="cls-51" x="488.68" y="0">c</tspan><tspan class="cls-46" x="497.97" y="0">e</tspan><tspan class="cls-50" x="508.49" y="0">n</tspan><tspan class="cls-51" x="520.06" y="0">t</tspan><tspan x="526.88" y="0">e</tspan><tspan class="cls-64" x="537.4" y="0">r</tspan><tspan x="543.16" y="0">, and nam</tspan><tspan class="cls-65" x="629.32" y="0">e</tspan><tspan x="639.59" y="0">.</tspan></text><path d="M239.3,3863.76v-3a18.29,18.29,0,0,0-4.15-6.9v9.91l-7.4-7.4,4.78-4.78a18.24,18.24,0,0,0-4.08-2.19l-4.61,4.61v-5.71a18.08,18.08,0,0,0-4.15,0V3854l-4.52-4.52a18.26,18.26,0,0,0-4,2.22l5,5-7.4,7.4v-10.39a18.3,18.3,0,0,0-4.15,6.73v3.66l-.75-.75a18.14,18.14,0,0,0,0,6.37l.72-.72v3.46a18.3,18.3,0,0,0,4.15,6.73V3869l7.4,7.4-4.92,4.92a18.25,18.25,0,0,0,4,2.19l4.37-4.37v5.47a18.07,18.07,0,0,0,4.15,0v-5.51l4.47,4.47a18.25,18.25,0,0,0,4.22-2.24l-4.77-4.77,7.4-7.4v9.9a18.29,18.29,0,0,0,4.15-6.9v-3l.61.61a18.18,18.18,0,0,0,0-6.71Zm-19.62,10.14-7.4-7.4,7.4-7.4Zm4.15,0V3859.1l7.4,7.4Z" transform="translate(0.5 -158.99)"/><path d="M250.51,3845.94a35.05,35.05,0,0,1,4.15,7.48v-12.47a7.52,7.52,0,0,1-4.15-1.53Z" transform="translate(0.5 -158.99)"/><path d="M247.36,3817.66H244.9l-5.87,5.87v-5.87h-4.15v5.87l-5.87-5.87H214.4l-5.87,5.87v-5.87h-4.15v5.87l-5.87-5.87h-1.84a21.6,21.6,0,0,0-7.7,1.41v14.65l-7.4-7.4,7.16-7.16A21.65,21.65,0,0,0,175,3839.31v54.35h-.17a21.66,21.66,0,0,0,13.78,20.17l-6.86-6.86,7.4-7.4V3914a21.61,21.61,0,0,0,7.34,1.28h2.09l5.61-5.61v5.61h4.15v-5.61l5.61,5.61h15.5l5.61-5.61v5.61h4.15v-5.61l5.61,5.61h2.54a20.82,20.82,0,0,0,6.9-1.18v-14.56l7.4,7.4-7,7a22.35,22.35,0,0,0,14.4-20.83v-53.88A21.65,21.65,0,0,0,247.36,3817.66Zm-54.23,1.27,7.4,7.4-7.4,7.4Zm-15,10.14,7.4,7.4-7.4,7.4Zm0,19.69,7.4,7.4-7.4,7.4Zm0,20.28,7.4,7.4-7.4,7.4Zm-.21,35.07v-14.79l7.4,7.4Zm15.44,10.26v-14.79l7.4,7.4Zm56.78,0-7.4-7.4,7.4-7.4Zm15.25-10.14-7.4-7.4,7.4-7.4Zm0-20.28-7.4-7.4,7.4-7.4Zm0-20.2-7.4-7.4,7.4-7.4Zm0-19.94-5.14-5.14a7.55,7.55,0,0,1-4.14,2.09l5.79,5.79-7.22,7.22a34.89,34.89,0,0,1,2,7.68l5,5-5,5a34.86,34.86,0,0,1-2.22,8.19l7,7-7.4,7.4v-13.36a35.09,35.09,0,0,1-4.15,7v6.34l-2.94-2.94a35.33,35.33,0,0,1-3.17,2.84l2.84,2.84-7.4,7.4v-7.16a35,35,0,0,1-4.15,2v5.16l-3.86-3.86a35,35,0,0,1-5.6,1.05l5.54,5.54-7.4,7.4v-12.8q-.91,0-1.82,0c-.78,0-1.56,0-2.33-.09v12.84l-7.4-7.4,5.6-5.6a35,35,0,0,1-5.24-1l-3.76,3.76v-5a35,35,0,0,1-4.15-2v7l-7.4-7.4,2.77-2.77a35.34,35.34,0,0,1-3.47-3.18l-3.21,3.21v-7.08a35,35,0,0,1-4.15-7.68V3894l-7.4-7.4,7.39-7.39a34.84,34.84,0,0,1-2-7.25l-5.65-5.65,5.73-5.73a34.89,34.89,0,0,1,1.81-6.63l-7.33-7.33,7.4-7.4v14.56a35,35,0,0,1,4.15-7.68v-6.88l3.11,3.11a35.34,35.34,0,0,1,3.46-3.19l-2.66-2.66,7.4-7.4v6.84a35,35,0,0,1,4.15-2v-4.83l3.6,3.6a34.94,34.94,0,0,1,5.37-1.06l-5.34-5.34,7.4-7.4v12.55c.69,0,1.39-.07,2.09-.07s1.38,0,2.06.07v-12.55l7.4,7.4-5.33,5.33a35,35,0,0,1,5.21,1l3.61-3.61v4.82a34.93,34.93,0,0,1,4.15,2V3829l7.4,7.4-2.61,2.61a35.3,35.3,0,0,1,3.48,3.18l3-3a7.57,7.57,0,0,1-2.56-8.22l-4.75-4.75,7.4-7.4v8.39a7.52,7.52,0,0,1,4.15-1.53v-6.86l7.4,7.4-1.64,1.64a7.54,7.54,0,0,1,2.12,4.1l3-3Z" transform="translate(0.5 -158.99)"/><path d="M302.63,3824.15c.85-21.63-16.78-39.25-38.21-38H179.91a36.72,36.72,0,0,0-38.68,38.07v84.91c-.61,21.42,17,39,38.44,37.73h84.51a36.25,36.25,0,0,0,38.46-37.78Zm-13.72,12.26,7.4-7.4v14.79Zm3.49,9.81-7.4,7.4v-14.79Zm-7.4-12.55v-14.79l7.4,7.4Zm3.91-17.54,7.4-7.4v14.79Zm-4.12-17.54,7.4,7.4-7.4,7.4Zm7.61,67.9-7.4,7.4V3859.1Zm-7.85,12.81,7.4,7.4-7.4,7.4Zm.21,20.28,7.4,7.4-7.4,7.4Zm-15-111.12,7.4,7.4-7.4,7.4Zm10.88,10.14v14.79l-7.4-7.4Zm-15-10.14v14.79l-7.4-7.4Zm-26.13.58,7.4,7.4-7.4,7.4Zm-4.15,0v14.79l-7.4-7.4Zm-26.71-.53,7.4,7.4-7.4,7.4Zm-4.15,0v14.79l-7.4-7.4Zm-26.35,0,7.4,7.4-7.4,7.4Zm-4.15,0v14.79l-7.4-7.4Zm-11.31,10.14,7.4,7.4-7.4,7.4Zm-14.82,65.49v-14.79l7.4,7.4Zm10.67-5.24v14.79l-7.4-7.4Zm-7.4-32.58,7.4-7.4v14.79Zm4.12,10.14-7.4,7.4v-14.79Zm3.27-37.81v14.79l-7.4-7.4Zm-10.88,10.14,7.4,7.4-7.4,7.4Zm-.21,60.25,7.4,7.4-7.4,7.4Zm0,20.28,7.4,7.4-7.4,7.4Zm.43,20.48,7.4,7.4-7.4,7.4Zm10.88,24.93-7.4-7.4,7.4-7.4Zm0-20.48-7.4-7.4,7.4-7.4Zm0-20.28-7.4-7.4,7.4-7.4Zm0-40-7.4-7.4,7.4-7.4Zm15,90.52-7.4-7.4,7.4-7.4Zm-10.88-9.79v-14.79l7.4,7.4Zm15,9.79v-14.79l7.4,7.4Zm26.26-.32-7.4-7.4,7.4-7.4Zm4.15,0v-14.79l7.4,7.4Zm26.35,0-7.4-7.4,7.4-7.4Zm4.15,0v-14.79l7.4,7.4Zm26.56,0-7.4-7.4,7.4-7.4Zm4.15,0v-14.79l7.4,7.4Zm10.88-10.14-7.4-7.4,7.4-7.4Zm2.29-40.64a35,35,0,0,1-2.08,11.88v9.07l-2.92-2.92a35.57,35.57,0,0,1-2.38,3.48l1.6,1.6-7.4,7.4v-3.07a35.48,35.48,0,0,1-4.15,2.9v.17l-.11-.11a35.23,35.23,0,0,1-4.44,2.22l.63.63-7.4,7.4v-6a35,35,0,0,1-4.15.54v5.46l-5.36-5.36H229.12l-5.36,5.36v-5.36H219.6v5.36l-5.36-5.36h-15l-5.94,5.94v-6.09a35,35,0,0,1-4.15-.62v6.72l-7.4-7.4L183,3926a35.25,35.25,0,0,1-4.43-2.22l-.72.72v-1.16a35.63,35.63,0,0,1-4.15-3v4.2l-7.4-7.4,2.22-2.22a35.62,35.62,0,0,1-2.54-3.78l-3.14,3.14v-10.18a35,35,0,0,1-1.66-10.65v-53.86a35,35,0,0,1,1.44-9.94v-10.69l3.2,3.2a35.52,35.52,0,0,1,2.66-4l-1.95-1.95,7.4-7.4v3.67a35.64,35.64,0,0,1,4.15-3v-.68l.43.43a35.25,35.25,0,0,1,4.42-2.23l-.94-.94,7.4-7.4V3805a35,35,0,0,1,4.15-.59v-5.75l5.62,5.62h15l5.68-5.68v5.68H224v-5.68l5.68,5.68h14.78l5.68-5.68v5.79a35,35,0,0,1,4.15.57v-6.36l7.4,7.4-.93.93a35.21,35.21,0,0,1,4.44,2.21l.4-.4v.63a35.5,35.5,0,0,1,4.15,2.95v-3.57l7.4,7.4-1.87,1.87a35.55,35.55,0,0,1,2.6,3.84l3-3v9.51a35,35,0,0,1,1.84,11.18Zm1.87,40.64v-14.79l7.4,7.4Zm11.52-9.56-7.4-7.4,7.4-7.4Zm0-20.28-7.4-7.4,7.4-7.4Zm.24-20.4-7.4-7.4,7.4-7.4Zm.18-20.08-7.4-7.4,7.4-7.4Z" transform="translate(0.5 -158.99)"/><path class="cls-12" d="M1127.81,4087v-1.4a8.52,8.52,0,0,0-1.93-3.21V4087l-3.44-3.44,2.22-2.22a8.49,8.49,0,0,0-1.9-1l-2.15,2.15v-2.66a8.42,8.42,0,0,0-1.93,0v2.64l-2.1-2.1a8.5,8.5,0,0,0-1.87,1l2.35,2.35-3.44,3.44v-4.84a8.52,8.52,0,0,0-1.93,3.13v1.71l-.35-.35a8.45,8.45,0,0,0,0,3l.33-.33V4091a8.52,8.52,0,0,0,1.93,3.13v-4.74l3.44,3.44-2.29,2.29a8.5,8.5,0,0,0,1.88,1l2-2v2.55a8.41,8.41,0,0,0,1.93,0v-2.57l2.08,2.08a8.5,8.5,0,0,0,2-1l-2.22-2.22,3.44-3.44v4.61a8.52,8.52,0,0,0,1.93-3.21v-1.4l.29.29a8.46,8.46,0,0,0,0-3.13Zm-9.13,4.72-3.44-3.44,3.44-3.44Zm1.93,0v-6.89l3.44,3.44Z" transform="translate(0.5 -158.99)"/><path class="cls-12" d="M1133,4078.66a16.32,16.32,0,0,1,1.93,3.48v-5.81a3.5,3.5,0,0,1-1.93-.71Z" transform="translate(0.5 -158.99)"/><path class="cls-12" d="M1131.56,4065.49h-1.14l-2.73,2.73v-2.73h-1.93v2.73l-2.73-2.73h-6.8l-2.73,2.73v-2.73h-1.93v2.73l-2.73-2.73H1108a10.06,10.06,0,0,0-3.58.66V4073l-3.44-3.44,3.33-3.33a10.08,10.08,0,0,0-6.39,9.38v25.31h-.08a10.09,10.09,0,0,0,6.42,9.39l-3.2-3.2,3.44-3.44v6.74a10.06,10.06,0,0,0,3.42.6h1l2.61-2.61V4111h1.93v-2.61L1116,4111h7.22l2.61-2.61V4111h1.93v-2.61l2.61,2.61h1.18a9.69,9.69,0,0,0,3.21-.55v-6.78l3.44,3.44-3.28,3.28a10.41,10.41,0,0,0,6.71-9.7v-25.09A10.08,10.08,0,0,0,1131.56,4065.49Zm-25.25.59,3.44,3.44-3.44,3.44Zm-7,4.72,3.44,3.44-3.44,3.44Zm0,9.17,3.44,3.44-3.44,3.44Zm0,9.44,3.44,3.44-3.44,3.44Zm-.1,16.33v-6.89l3.44,3.44Zm7.19,4.78v-6.89l3.44,3.44Zm26.44,0-3.44-3.44,3.44-3.44Zm7.1-4.72-3.44-3.44,3.44-3.44Zm0-9.44-3.44-3.44,3.44-3.44Zm0-9.41-3.44-3.44,3.44-3.44Zm0-9.29-2.39-2.39a3.51,3.51,0,0,1-1.93,1l2.7,2.7-3.36,3.36a16.25,16.25,0,0,1,.94,3.58l2.35,2.35-2.35,2.35a16.23,16.23,0,0,1-1,3.81l3.24,3.24-3.44,3.44v-6.22a16.34,16.34,0,0,1-1.93,3.27v3l-1.37-1.37a16.45,16.45,0,0,1-1.48,1.32l1.32,1.32-3.44,3.44v-3.33a16.29,16.29,0,0,1-1.93.93v2.4l-1.8-1.8a16.29,16.29,0,0,1-2.61.49l2.58,2.58-3.44,3.44v-6l-.85,0c-.36,0-.73,0-1.09,0v6l-3.44-3.44,2.61-2.61a16.27,16.27,0,0,1-2.44-.48l-1.75,1.75v-2.34a16.3,16.3,0,0,1-1.93-.93v3.28l-3.44-3.44,1.29-1.29a16.46,16.46,0,0,1-1.62-1.48l-1.49,1.49v-3.3a16.32,16.32,0,0,1-1.93-3.57V4101l-3.44-3.44,3.44-3.44a16.22,16.22,0,0,1-.91-3.37l-2.63-2.63,2.67-2.67a16.25,16.25,0,0,1,.84-3.09L1101,4079l3.44-3.44v6.78a16.32,16.32,0,0,1,1.93-3.57v-3.2l1.45,1.45a16.46,16.46,0,0,1,1.61-1.49l-1.24-1.24,3.44-3.44V4074a16.29,16.29,0,0,1,1.93-.93v-2.25l1.68,1.68a16.27,16.27,0,0,1,2.5-.5l-2.48-2.48,3.44-3.44v5.84c.32,0,.65,0,1,0s.64,0,1,0v-5.84l3.44,3.44-2.48,2.48a16.28,16.28,0,0,1,2.43.47l1.68-1.68V4073a16.26,16.26,0,0,1,1.93.92v-3.16l3.44,3.44-1.21,1.21a16.44,16.44,0,0,1,1.62,1.48l1.38-1.38a3.52,3.52,0,0,1-1.19-3.83l-2.21-2.21,3.44-3.44V4070a3.5,3.5,0,0,1,1.93-.71v-3.2l3.44,3.44-.76.76a3.51,3.51,0,0,1,1,1.91l1.4-1.4Z" transform="translate(0.5 -158.99)"/><path class="cls-12" d="M1157.3,4068.51a16.91,16.91,0,0,0-17.79-17.7h-39.35a17.1,17.1,0,0,0-18,17.72v39.54a17,17,0,0,0,17.9,17.57h39.35A16.88,16.88,0,0,0,1157.3,4108Zm-6.39,5.71,3.44-3.44v6.89Zm1.62,4.57-3.44,3.44v-6.89Zm-3.44-5.84v-6.89l3.44,3.44Zm1.82-8.17,3.44-3.44v6.89Zm-1.92-8.17,3.44,3.44-3.44,3.44Zm3.54,31.62-3.44,3.44v-6.89Zm-3.66,6,3.44,3.44-3.44,3.44Zm.1,9.44,3.44,3.44-3.44,3.44Zm-7-51.74,3.44,3.44-3.44,3.44Zm5.07,4.72v6.89l-3.44-3.44Zm-7-4.72v6.89l-3.44-3.44Zm-12.17.27,3.44,3.44-3.44,3.44Zm-1.93,0v6.89l-3.44-3.44Zm-12.44-.25,3.44,3.44-3.44,3.44Zm-1.93,0v6.89l-3.44-3.44Zm-12.27,0,3.44,3.44-3.44,3.44Zm-1.93,0v6.89l-3.44-3.44Zm-5.27,4.72,3.44,3.44-3.44,3.44Zm-6.9,30.49v-6.89l3.44,3.44Zm5-2.44v6.89l-3.44-3.44Zm-3.44-15.17,3.44-3.44V4073Zm1.92,4.72-3.44,3.44v-6.89Zm1.52-17.61v6.89l-3.44-3.44Zm-5.07,4.72,3.44,3.44-3.44,3.44Zm-.1,28.06,3.44,3.44-3.44,3.44Zm0,9.44,3.44,3.44-3.44,3.44Zm.2,9.54,3.44,3.44-3.44,3.44Zm5.07,11.61-3.44-3.44,3.44-3.44Zm0-9.54-3.44-3.44,3.44-3.44Zm0-9.44-3.44-3.44,3.44-3.44Zm0-18.61-3.44-3.44,3.44-3.44Zm7,42.15-3.44-3.44,3.44-3.44Zm-5.07-4.56v-6.89l3.44,3.44Zm7,4.56v-6.89l3.44,3.44Zm12.23-.15L1108,4121l3.44-3.44Zm1.93,0v-6.89l3.44,3.44Zm12.27,0-3.44-3.44,3.44-3.44Zm1.93,0v-6.89L1131,4121Zm12.37,0-3.44-3.44,3.44-3.44Zm1.93,0v-6.89l3.44,3.44Zm5.07-4.72-3.44-3.44,3.44-3.44Zm1.07-18.93a16.28,16.28,0,0,1-1,5.53v4.22l-1.36-1.36a16.56,16.56,0,0,1-1.11,1.62l.74.74-3.44,3.44v-1.43a16.52,16.52,0,0,1-1.93,1.35v.08l-.05-.05a16.41,16.41,0,0,1-2.07,1l.3.3-3.44,3.44v-2.79a16.3,16.3,0,0,1-1.93.25v2.54l-2.5-2.5h-7.18l-2.5,2.5v-2.5h-1.93v2.5l-2.5-2.5h-7l-2.77,2.77v-2.84a16.28,16.28,0,0,1-1.93-.29V4120l-3.44-3.44.58-.58a16.42,16.42,0,0,1-2.06-1l-.34.34v-.54a16.59,16.59,0,0,1-1.93-1.42v2l-3.44-3.44,1-1a16.58,16.58,0,0,1-1.18-1.76l-1.46,1.46v-4.74a16.29,16.29,0,0,1-.77-5v-25.08a16.3,16.3,0,0,1,.67-4.63v-5l1.49,1.49a16.54,16.54,0,0,1,1.24-1.86l-.91-.91,3.44-3.44v1.71a16.6,16.6,0,0,1,1.93-1.39v-.32l.2.2a16.41,16.41,0,0,1,2.06-1l-.44-.44,3.44-3.44v3a16.32,16.32,0,0,1,1.93-.27v-2.68l2.62,2.62h7l2.64-2.64v2.64h1.93v-2.64l2.64,2.64h6.88l2.64-2.64v2.7a16.3,16.3,0,0,1,1.93.26v-3l3.44,3.44-.43.43a16.39,16.39,0,0,1,2.07,1l.19-.19v.29A16.53,16.53,0,0,1,1142,4063v-1.66l3.44,3.44-.87.87a16.55,16.55,0,0,1,1.21,1.79l1.38-1.38v4.43a16.29,16.29,0,0,1,.85,5.2Zm.87,18.93v-6.89l3.44,3.44Zm5.36-4.45-3.44-3.44,3.44-3.44Zm0-9.44-3.44-3.44,3.44-3.44Zm.11-9.5-3.44-3.44,3.44-3.44Zm.08-9.35-3.44-3.44,3.44-3.44Z" transform="translate(0.5 -158.99)"/><path class="cls-12" d="M1384.16,3924.25v-1.4a8.52,8.52,0,0,0-1.93-3.21v4.61l-3.44-3.44,2.22-2.22a8.49,8.49,0,0,0-1.9-1l-2.15,2.15v-2.66a8.42,8.42,0,0,0-1.93,0v2.64l-2.1-2.1a8.5,8.5,0,0,0-1.87,1l2.35,2.35-3.44,3.44v-4.84a8.52,8.52,0,0,0-1.93,3.13v1.71l-.35-.35a8.45,8.45,0,0,0,0,3l.33-.33v1.61a8.52,8.52,0,0,0,1.93,3.13v-4.74l3.44,3.44-2.29,2.29a8.5,8.5,0,0,0,1.88,1l2-2V3934a8.41,8.41,0,0,0,1.93,0v-2.57l2.08,2.08a8.5,8.5,0,0,0,2-1l-2.22-2.22,3.44-3.44v4.61a8.52,8.52,0,0,0,1.93-3.21v-1.4l.29.29a8.46,8.46,0,0,0,0-3.13ZM1375,3929l-3.44-3.44,3.44-3.44Zm1.93,0v-6.89l3.44,3.44Z" transform="translate(0.5 -158.99)"/><path class="cls-12" d="M1389.37,3916a16.32,16.32,0,0,1,1.93,3.48v-5.81a3.5,3.5,0,0,1-1.93-.71Z" transform="translate(0.5 -158.99)"/><path class="cls-12" d="M1387.91,3902.79h-1.14l-2.73,2.73v-2.73h-1.93v2.73l-2.73-2.73h-6.8l-2.73,2.73v-2.73h-1.93v2.73l-2.73-2.73h-.85a10.06,10.06,0,0,0-3.58.66v6.82l-3.44-3.44,3.33-3.33a10.08,10.08,0,0,0-6.39,9.38v25.31h-.08a10.09,10.09,0,0,0,6.42,9.39l-3.2-3.2,3.44-3.44v6.74a10.06,10.06,0,0,0,3.42.6h1l2.61-2.61v2.61h1.93v-2.61l2.61,2.61h7.22l2.61-2.61v2.61h1.93v-2.61l2.61,2.61h1.18a9.69,9.69,0,0,0,3.21-.55v-6.78l3.44,3.44-3.28,3.28a10.41,10.41,0,0,0,6.71-9.7v-25.09A10.08,10.08,0,0,0,1387.91,3902.79Zm-25.25.59,3.44,3.44-3.44,3.44Zm-7,4.72,3.44,3.44-3.44,3.44Zm0,9.17,3.44,3.44-3.44,3.44Zm0,9.44,3.44,3.44-3.44,3.44Zm-.1,16.33v-6.89l3.44,3.44Zm7.19,4.78v-6.89l3.44,3.44Zm26.44,0-3.44-3.44,3.44-3.44Zm7.1-4.72-3.44-3.44,3.44-3.44Zm0-9.44-3.44-3.44,3.44-3.44Zm0-9.41-3.44-3.44,3.44-3.44Zm0-9.29-2.39-2.39a3.51,3.51,0,0,1-1.93,1l2.7,2.7-3.36,3.36a16.25,16.25,0,0,1,.94,3.58l2.35,2.35-2.35,2.35a16.23,16.23,0,0,1-1,3.81l3.24,3.24-3.44,3.44v-6.22a16.34,16.34,0,0,1-1.93,3.27v3l-1.37-1.37a16.45,16.45,0,0,1-1.48,1.32l1.32,1.32-3.44,3.44v-3.33a16.28,16.28,0,0,1-1.93.93v2.4l-1.8-1.8a16.29,16.29,0,0,1-2.61.49l2.58,2.58-3.44,3.44v-6l-.85,0c-.36,0-.73,0-1.09,0v6l-3.44-3.44,2.61-2.61a16.27,16.27,0,0,1-2.44-.48L1370,3943v-2.34a16.3,16.3,0,0,1-1.93-.93V3943l-3.44-3.44,1.29-1.29a16.46,16.46,0,0,1-1.62-1.48l-1.49,1.49V3935a16.32,16.32,0,0,1-1.93-3.57v6.87l-3.44-3.44,3.44-3.44a16.22,16.22,0,0,1-.91-3.37l-2.63-2.63,2.67-2.67a16.25,16.25,0,0,1,.84-3.09l-3.41-3.41,3.44-3.44v6.78a16.32,16.32,0,0,1,1.93-3.57v-3.2l1.45,1.45a16.46,16.46,0,0,1,1.61-1.49l-1.24-1.24,3.44-3.44v3.18a16.29,16.29,0,0,1,1.93-.93v-2.25l1.68,1.68a16.27,16.27,0,0,1,2.5-.5l-2.48-2.48,3.44-3.44v5.84c.32,0,.65,0,1,0s.64,0,1,0v-5.84l3.44,3.44-2.48,2.48a16.28,16.28,0,0,1,2.43.47l1.68-1.68v2.24a16.26,16.26,0,0,1,1.93.92v-3.16l3.44,3.44-1.21,1.21a16.44,16.44,0,0,1,1.62,1.48l1.38-1.38a3.52,3.52,0,0,1-1.19-3.83l-2.21-2.21,3.44-3.44v3.91a3.5,3.5,0,0,1,1.93-.71v-3.2l3.44,3.44-.76.76a3.51,3.51,0,0,1,1,1.91l1.4-1.4Z" transform="translate(0.5 -158.99)"/><path class="cls-12" d="M1413.64,3905.81a16.91,16.91,0,0,0-17.79-17.7H1356.5a17.1,17.1,0,0,0-18,17.72v39.54a17,17,0,0,0,17.9,17.57h39.35a16.88,16.88,0,0,0,17.91-17.59Zm-6.39,5.71,3.44-3.44V3915Zm1.62,4.57-3.44,3.44v-6.89Zm-3.44-5.84v-6.89l3.44,3.44Zm1.82-8.17,3.44-3.44v6.89Zm-1.92-8.17,3.44,3.44-3.44,3.44Zm3.54,31.62-3.44,3.44v-6.89Zm-3.66,6,3.44,3.44-3.44,3.44Zm.1,9.44,3.44,3.44-3.44,3.44Zm-7-51.74,3.44,3.44-3.44,3.44Zm5.07,4.72v6.89l-3.44-3.44Zm-7-4.72v6.89l-3.44-3.44Zm-12.17.27,3.44,3.44-3.44,3.44Zm-1.93,0v6.89l-3.44-3.44Zm-12.44-.25,3.44,3.44-3.44,3.44Zm-1.93,0v6.89l-3.44-3.44Zm-12.27,0,3.44,3.44-3.44,3.44Zm-1.93,0v6.89l-3.44-3.44Zm-5.27,4.72,3.44,3.44-3.44,3.44Zm-6.9,30.49v-6.89L1345,3921Zm5-2.44v6.89l-3.44-3.44Zm-3.44-15.17,3.44-3.44v6.89Zm1.92,4.72-3.44,3.44v-6.89Zm1.52-17.61v6.89l-3.44-3.44Zm-5.07,4.72,3.44,3.44-3.44,3.44Zm-.1,28.06,3.44,3.44-3.44,3.44Zm0,9.44,3.44,3.44-3.44,3.44Zm.2,9.54,3.44,3.44-3.44,3.44Zm5.07,11.61-3.44-3.44,3.44-3.44Zm0-9.54-3.44-3.44,3.44-3.44Zm0-9.44-3.44-3.44,3.44-3.44Zm0-18.61-3.44-3.44,3.44-3.44Zm7,42.15-3.44-3.44,3.44-3.44Zm-5.07-4.56v-6.89l3.44,3.44Zm7,4.56V3955l3.44,3.44Zm12.23-.15-3.44-3.44,3.44-3.44Zm1.93,0v-6.89l3.44,3.44Zm12.27,0-3.44-3.44,3.44-3.44Zm1.93,0v-6.89l3.44,3.44Zm12.37,0-3.44-3.44,3.44-3.44Zm1.93,0v-6.89l3.44,3.44Zm5.07-4.72-3.44-3.44,3.44-3.44Zm1.07-18.93a16.28,16.28,0,0,1-1,5.53v4.22l-1.36-1.36a16.56,16.56,0,0,1-1.11,1.62l.74.74-3.44,3.44v-1.43a16.52,16.52,0,0,1-1.93,1.35v.08l-.05-.05a16.41,16.41,0,0,1-2.07,1l.3.3L1391,3957v-2.79a16.3,16.3,0,0,1-1.93.25V3957l-2.5-2.5h-7.18l-2.5,2.5v-2.5H1375v2.5l-2.5-2.5h-7l-2.77,2.77v-2.84a16.28,16.28,0,0,1-1.93-.29v3.13l-3.44-3.44.58-.58a16.42,16.42,0,0,1-2.06-1l-.34.34V3952a16.59,16.59,0,0,1-1.93-1.42v2l-3.44-3.44,1-1a16.58,16.58,0,0,1-1.18-1.76l-1.46,1.46V3943a16.29,16.29,0,0,1-.77-5V3913a16.3,16.3,0,0,1,.67-4.63v-5l1.49,1.49a16.54,16.54,0,0,1,1.24-1.86l-.91-.91,3.44-3.44v1.71a16.6,16.6,0,0,1,1.93-1.39v-.32l.2.2a16.41,16.41,0,0,1,2.06-1l-.44-.44,3.44-3.44v3a16.32,16.32,0,0,1,1.93-.27v-2.68l2.62,2.62h7l2.64-2.64v2.64H1377v-2.64l2.64,2.64h6.88l2.64-2.64v2.7a16.3,16.3,0,0,1,1.93.26v-3l3.44,3.44-.43.43a16.39,16.39,0,0,1,2.07,1l.19-.19v.29a16.53,16.53,0,0,1,1.93,1.37v-1.66l3.44,3.44-.87.87a16.55,16.55,0,0,1,1.21,1.79l1.38-1.38v4.43a16.29,16.29,0,0,1,.85,5.2Zm.87,18.93v-6.89l3.44,3.44Zm5.36-4.45-3.44-3.44,3.44-3.44Zm0-9.44-3.44-3.44,3.44-3.44Zm.11-9.5-3.44-3.44,3.44-3.44Zm.08-9.35-3.44-3.44,3.44-3.44Z" transform="translate(0.5 -158.99)"/><path class="cls-66" d="M282.88,3720.8l-7-7,3.52-3.52-.05-.05a19.37,19.37,0,0,0-3.33-2.65l-3.63,3.63v-5.42a19.19,19.19,0,0,0-3.92-1v6.4l-6.59-6.59H250.37l-6.59,6.59v-6.58h-3.92v6.58l-6.58-6.58h-3.54v0a19.19,19.19,0,0,1-10-2.78l2.27,2.27-7,7v-13.28a19.23,19.23,0,0,1-3.92-7.47v1.6l-7-7,6.33-6.33v-5.95l-6.33-6.33,7-7v7.17h3.92v-7.17l7,7-.19.19h11.65L233,3666l7-7v7.54h3.92V3659l7,7-.55.55h11.76l-.55-.55,7-7v7.34a19.16,19.16,0,0,0,3.92-1V3659l4.19,4.19c.35-.24.7-.49,1-.75a19.39,19.39,0,0,0,2.33-2.16l-3.87-3.87,7-7v6.26a19.3,19.3,0,0,0,0-16.83v5.71l-7-7,3.6-3.6a19.37,19.37,0,0,0-3.31-2.78l-3.79,3.79v-5.73a19.16,19.16,0,0,0-3.92-1V3635l-7-7H250.59l-7,7v-7h-3.92v7l-7-7h-11l-7,7v-7h-3.92v7l-7-7,6.59-6.59v-6l-6.53-6.53,5.93-5.93a18.49,18.49,0,0,0-17.35-13.53l.31.31-7,7v-6.31a18.67,18.67,0,0,0-3.92,1.86v4.45l-2.54-2.54a18.38,18.38,0,0,0-2.77,3.11l2,2-5,5a17.84,17.84,0,0,0-.31,3.28c0,.07,0,2.59,0,5.83l5.08,5.08-5.07,5.07v9l5.07,5.07-5.07,5.07v8.81l5.27,5.27-5.27,5.27v8.26l5.07,5.07-5.07,5.07v7.64c0,.4,0,.8,0,1.2l5.24,5.24-4,4c.37,1.57.79,3.12,1.24,4.64l6-6v14l-5.09-5.09a54.82,54.82,0,0,0,4.93,10.53l.15-.15v.38a55.21,55.21,0,0,0,3.92,5.61v-6l7,7-3.24,3.24q1.56,1.59,3.23,3.05l3.7-3.7v6.65c1.18.86,2.39,1.68,3.63,2.44l.29.17V3726l7,7-4,4q1.75.91,3.57,1.7l3.64-3.64v5.07c1.29.45,2.6.86,3.92,1.22V3735l7,7-.61.61a55.3,55.3,0,0,0,6.55.56h6.15l-1.17-1.17,7-7v8.17h3.92V3735l7,7-1.18,1.18h13.48l-1.19-1.19,7-7v8a19.15,19.15,0,0,0,3.92-1v-7l4.58,4.58a19.39,19.39,0,0,0,3.11-2.77l-4.39-4.39,7-7v7.72a19.29,19.29,0,0,0,.2-18.11Zm-10.46-80.64,7,7-7,7Zm-18.13,23.56-7-7,7-7Zm14.21-9.58-7-7,7-7Zm-10.28-23.56,7,7-7,7Zm0,19.16,7,7-7,7Zm-3.92-19.16v14l-7-7Zm-10.68,9.58,7,7-7,7Zm-18.28,23.61-7-7,7-7Zm14.35-9.63-7-7,7-7Zm-10.28-23.56,7,7-7,7Zm-.14,19.21,7,7-7,7Zm-3.78-19.21v14l-7-7Zm-10.43,9.63,7,7-7,7Zm-39.93-31.33,7-7v14Zm7,83.07-7-7,7-7Zm0-19.16-7-7,7-7Zm0-18.61-7-7,7-7Zm0-19.16-7-7,7-7Zm3.92-33.14,7,7-7,7Zm3.3,73.49,7-7v14ZM193,3685l-7,7v-14Zm-7-12.17v-14l7,7Zm3.29-35.17,7-7v14Zm3.7,9.58-7,7v-14ZM186,3635v-14l7,7Zm-.2,62.1,7,7-7,7Zm10.66,23.67-7-7,7-7Zm0-19.27-7-7,7-7Zm0-37.76-7-7,7-7Zm.2-38.32-7-7,7-7Zm0-19.16-7-7,7-7Zm10.72,88.25-7,7v-14Zm-7-30.78v-14l7,7Zm10.68-23.56v14l-7-7Zm-10.49-47.89,7,7-7,7Zm0,19.16,7,7-7,7Zm-.4,19.16,7,7-7,7Zm0,51.74v-14l7,7Zm.18,24.45,7,7-7,7Zm10.28,23.56-7-7,7-7Zm.43-19.27-7-7,7-7Zm3.5,5.29,7,7-7,7Zm10.62,23-7-7,7-7Zm0-18.61-7-7,7-7Zm3.92-14,7,7-7,7Zm0,32.58v-14l7,7Zm10.68-9-7-7,7-7ZM258,3706.83l7,7-7,7Zm-14.21,9.58,7,7-7,7Zm10.08,23-7-7,7-7Zm.2-18.61-7-7,7-7Zm3.72,18.61v-14l7,7Zm10.68-9.58-7-7,7-7Zm3.92,0v-14l7,7Z" transform="translate(0.5 -158.99)"/><text class="cls-44" transform="translate(39.24 3963.79)"><tspan class="cls-45">P</tspan><tspan class="cls-46" x="11.07" y="0">lane flying </tspan><tspan class="cls-47" x="106.41" y="0">o</tspan><tspan class="cls-48" x="117.79" y="0">v</tspan><tspan x="127.68" y="0">er/near spa</tspan><tspan class="cls-49" x="226.27" y="0">c</tspan><tspan x="235.55" y="0">e needle - anim</tspan><tspan class="cls-50" x="370.1" y="0">a</tspan><tspan class="cls-51" x="380.14" y="0">t</tspan><tspan class="cls-46" x="386.96" y="0">e</tspan><tspan class="cls-52" x="397.48" y="0">d</tspan><tspan x="409.12" y="0">.</tspan></text></g></svg>