<svg xmlns="http://www.w3.org/2000/svg" viewBox="0 0 213.09 698.32"><defs><style>.cls-1{fill:#6c9;stroke:#96ffb0;stroke-miterlimit:10;}</style></defs><title>rain_drops</title><g id="Layer_2" data-name="Layer 2"><g id="Background_Slant_boxes" data-name="Background Slant boxes"><path class="cls-1" d="M136,208.9h0c-.09-.19-12.33-24.32-12.33-24.32s-12.24,24.13-12.33,24.32h0a13.66,13.66,0,1,0,24.66,0Z"/><path class="cls-1" d="M59.23,390.5h0c-.09-.19-12.33-24.32-12.33-24.32S34.66,390.31,34.57,390.5h0a13.66,13.66,0,1,0,24.66,0Z"/><path class="cls-1" d="M100.2,420.8h0c-.09-.19-12.33-24.32-12.33-24.32S75.63,420.61,75.54,420.8h0a13.66,13.66,0,1,0,24.66,0Z"/><path class="cls-1" d="M200.2,297.36h0c-.09-.19-12.33-24.32-12.33-24.32s-12.24,24.13-12.33,24.32h0a13.66,13.66,0,1,0,24.66,0Z"/><path class="cls-1" d="M154.52,493.82h0c-.09-.19-12.33-24.32-12.33-24.32S130,493.63,129.86,493.82h0a13.66,13.66,0,1,0,24.66,0Z"/><path class="cls-1" d="M77.57,566.86h0c-.11-.23-14.86-29.31-14.86-29.31S48,566.64,47.85,566.86h0a16.46,16.46,0,1,0,29.72,0Z"/><path class="cls-1" d="M51.64,674.27h0C51.53,674,36.78,645,36.78,645S22,674,21.92,674.27h0a16.46,16.46,0,1,0,29.72,0Z"/><path class="cls-1" d="M52.87,481.61h0c-.09-.19-12.33-24.32-12.33-24.32s-12.24,24.13-12.33,24.32h0a13.66,13.66,0,1,0,24.66,0Z"/><path class="cls-1" d="M140,646.51h0c-.11-.24-15.7-31-15.7-31s-15.59,30.72-15.7,31h0a17.39,17.39,0,1,0,31.4,0Z"/><path class="cls-1" d="M47.35,302.34h0l-6.81-13.42-6.81,13.42h0a7.54,7.54,0,1,0,13.61,0Z"/><path class="cls-1" d="M149,412.49h0l-6.81-13.42-6.81,13.42h0a7.54,7.54,0,1,0,13.61,0Z"/><path class="cls-1" d="M33.69,185.69h0l-6.81-13.42-6.81,13.42h0a7.54,7.54,0,1,0,13.61,0Z"/><path class="cls-1" d="M149,45.68h0l-6.81-13.42-6.81,13.42h0a7.54,7.54,0,1,0,13.61,0Z"/><path class="cls-1" d="M65.38,129.9h0l-6.81-13.42L51.76,129.9h0a7.54,7.54,0,1,0,13.61,0Z"/><path class="cls-1" d="M18.61,165.15h0l-6.81-13.42L5,165.15H5a7.54,7.54,0,1,0,13.61,0Z"/><path class="cls-1" d="M26.15,261.7h0l-6.81-13.42L12.54,261.7h0a7.54,7.54,0,1,0,13.61,0Z"/><path class="cls-1" d="M123.26,535.73h0l-3.4-6.71-3.4,6.71h0a3.77,3.77,0,1,0,6.81,0Z"/><path class="cls-1" d="M54.43,57.78h0L51,51.07l-3.4,6.71h0a3.77,3.77,0,1,0,6.81,0Z"/><path class="cls-1" d="M82.58,17.83h0l-3.4-6.71-3.4,6.71h0a3.77,3.77,0,1,0,6.81,0Z"/><path class="cls-1" d="M7.67,17.83h0l-3.4-6.71L.87,17.83h0a3.77,3.77,0,1,0,6.81,0Z"/><path class="cls-1" d="M95.64,111.08h0l-3.4-6.71-3.4,6.71h0a3.77,3.77,0,1,0,6.81,0Z"/><path class="cls-1" d="M82.58,166.87h0l-3.4-6.71-3.4,6.71h0a3.77,3.77,0,1,0,6.81,0Z"/><path class="cls-1" d="M54.43,105h0L51,98.32,47.63,105h0a3.77,3.77,0,1,0,6.81,0Z"/><path class="cls-1" d="M22.75,39h0l-3.4-6.71L15.95,39h0a3.77,3.77,0,1,0,6.81,0Z"/><path class="cls-1" d="M212.23,7.82h0l-3.4-6.71-3.4,6.71h0a3.77,3.77,0,1,0,6.81,0Z"/><path class="cls-1" d="M19,347.24h0l-3.4-6.71-3.4,6.71h0a3.77,3.77,0,1,0,6.81,0Z"/><path class="cls-1" d="M88.72,365.15h0l-3.4-6.71-3.4,6.71h0a3.77,3.77,0,1,0,6.81,0Z"/><path class="cls-1" d="M69.52,290.23h0l-6.81-13.42-6.81,13.42h0a7.54,7.54,0,1,0,13.61,0Z"/><path class="cls-1" d="M86,229.95h0l-6.81-13.42-6.81,13.42h0a7.54,7.54,0,1,0,13.61,0Z"/></g></g></svg>