<svg xmlns="http://www.w3.org/2000/svg" viewBox="0 0 206.28 602.71"><defs><style>.cls-1{fill:#6c9;}.cls-2,.cls-3{fill:#96ffb0;}.cls-3{stroke:#9f9;stroke-miterlimit:10;}</style></defs><title>space_needle</title><g id="Layer_2" data-name="Layer 2"><g id="Background_Slant_boxes" data-name="Background Slant boxes"><rect class="cls-1" x="89.81" y="126.1" width="26.66" height="475.62"/><path class="cls-2" d="M154.19,131.11H135.92L119.54,250.7a16.27,16.27,0,0,1-.53,3.85c-1.11,4.24-3.82,7.24-7,7.24s-6.1-3.22-7.12-7.72a16.65,16.65,0,0,1-.43-3.81,15.73,15.73,0,0,1,.13-2.08L98.53,131.11H92c4.72,52.66,4.72,139.45,4.72,230.51,0,78.92,7.52,177.22,8,240.95l9.16,0-.76-37.28h11.11l2.66,37.32,21.93.07C131.68,572.7,125.8,474.53,125.8,358,125.8,258.88,137.79,173,154.19,131.11Zm-34,376.12H112l-.89-43.35h6Zm-9.73-76.69c.34-2.36,1.09-4,2-4,1.05,0,1.92,2.35,2.13,5.48l.28,0,1.7,23.9h-5.56l-.39-18.84a19.1,19.1,0,0,1-.33-3.65A19.6,19.6,0,0,1,110.42,430.54ZM113,557.33l-.86-42.12h8.57l3,42.12Z"/><path class="cls-2" d="M67.41,131.11H55.11c1.52,5.7,3,12,4.43,18.77C70.49,201.81,78.61,283,78.61,358a1126.94,1126.94,0,0,1-18.3,203.57C57,579.54,54,593.31,52.09,602.41l11,0h2.33q-.41-2.83-.83-5.85C73.87,558.42,88.2,466.25,88.2,358,88.2,278.9,79.24,184.89,67.41,131.11Z"/><path class="cls-2" d="M174.07,120.33c13.79-2,24.16-4.46,29.59-7.31a12.92,12.92,0,0,0,2.62-1.71,18.94,18.94,0,0,0-5.21-2.9c-5.23-2.11-13.28-4-23.45-5.59l-.07,0a3.35,3.35,0,0,1-.44-.07v0l1-5.45,1-5.51-.63-.23-5-1.85-10.1-3.76L130.25,73.59A4.21,4.21,0,0,1,128.7,73a4.5,4.5,0,0,1-2.23-3.9A4.18,4.18,0,0,1,126.6,68a4.55,4.55,0,0,1,3.56-3.39l7.32-7q-5.07-.46-10.47-.8l-.8-3.67-.86-4H109l-1.47-8.54H95.9l-1.23,8.54H77.52l-1,4.36-.76,3.51q-5.22.38-10.09.88L73,64.88a4.49,4.49,0,0,1,2.5,2.38,4.39,4.39,0,0,1,.4,1.85,4.54,4.54,0,0,1-4.54,4.55L40.19,85.24l-16.65,6.2.14.78,1,5.63.94,5.46c-2.37.4-4.61.82-6.7,1.26a83,83,0,0,0-13.68,3.84A18.94,18.94,0,0,0,0,111.31a14.28,14.28,0,0,0,3.12,2C7,115.22,13.26,117,21.3,118.54q3.36.64,7.13,1.23l1,5.78,1,6q-3.48.8-6.63,1.65c-1.88.52-3.68,1-5.38,1.6q2.8.93,6,1.79,3.42.93,7.22,1.78c18.76,4.19,44.08,6.76,71.92,6.76,22.81,0,43.91-1.72,61.1-4.65q3.16-.52,6.15-1.13a153.43,153.43,0,0,0,17.45-4.41,148.29,148.29,0,0,0-16-4.16l.8-4.64Z"/><line class="cls-3" x1="101.21" x2="101.21" y2="43.93"/></g></g></svg>