<svg xmlns="http://www.w3.org/2000/svg" viewBox="0 0 452.19 166.99"><defs><style>.cls-1{fill:#6c9;}.cls-2{fill:#96ffb0;}.cls-3{fill:#333;}</style></defs><title>paperplane_1</title><g id="Layer_2" data-name="Layer 2"><g id="scratch"><polygon class="cls-1" points="84.41 95.71 56.66 127.68 77.73 119.07 84.41 95.71"/><polygon class="cls-1" points="174.4 48.05 98.31 57.95 98.58 58.92 174.4 48.05"/><path class="cls-2" d="M213.27,84.45a2.24,2.24,0,0,0,1.29-3.06l-5.17-12.68a2.24,2.24,0,0,0-3.06-1.29l-4.61,1.88,6.94,17Z"/><path class="cls-2" d="M92.18,86.76h0L81.67,123.49l-10,35L421.21,16.76,98.7,64Zm115.3-27.3a6.6,6.6,0,0,1,8.55,3.6l7.23,17.73a6.61,6.61,0,0,1-3.58,8.59l-16.09,6.56L191.39,66ZM166.84,76l15.68,12.84-6.72-16.49,7.09-2.89,12.2,29.92-7.31,3L172.33,89.51,179,106l-7.09,2.89-12.2-29.92ZM152.3,82l2.62,6.43L143,93.23l2.13,5.23,10.28-4.19,2.6,6.38-10.28,4.19,2.21,5.41,11.88-4.84,2.64,6.47-19.55,8-12.2-29.92ZM109.18,99.55l15.47-6.31,2.62,6.43-10.81,4.41a.49.49,0,0,0-.25.67l1.79,4.39a.47.47,0,0,0,.61.22l7.71-3.14a3.59,3.59,0,0,1,4.93,2.07l4.57,11.21a3.59,3.59,0,0,1-2.07,4.93l-15.87,6.47-2.64-6.47,11.21-4.57c.31-.13.42-.37.33-.6L125,114.91a.46.46,0,0,0-.65-.2l-7.71,3.14a3.59,3.59,0,0,1-4.93-2.07l-4.61-11.3A3.59,3.59,0,0,1,109.18,99.55Z"/><polygon class="cls-2" points="95.71 53.26 414.75 13.62 417.88 13.23 417.53 13.23 406.35 12.94 18.37 5.47 74.56 40.19 95.71 53.26"/><polygon class="cls-2" points="94.14 61.69 92.99 57.45 77.66 47.98 59.16 117.17 87.67 84.32 94.14 61.69"/><path class="cls-3" d="M0,0,73.21,45.23l-22.7,85h0l-1.76,6.61L76,125.26,64,167,439.1,13.61h0l13.07-5.35ZM18.37,5.47l388,7.47,11.62.22-.44.07h.35l-3.13.39-319,39.64L74.56,40.19Zm156,42.58L98.58,58.92l-.27-1ZM77.66,48,93,57.45l1.15,4.24L87.67,84.32,59.16,117.17Zm-21,79.7,27.75-32-6.68,23.36Zm15,30.79,10-35L92.18,86.77h0L98.7,64,421.21,16.76Z"/><path class="cls-3" d="M111.72,115.78a3.59,3.59,0,0,0,4.93,2.07l7.71-3.14a.46.46,0,0,1,.65.2l1.77,4.34c.09.22,0,.47-.33.6l-11.21,4.57,2.64,6.47,15.87-6.47a3.59,3.59,0,0,0,2.07-4.93l-4.57-11.21a3.59,3.59,0,0,0-4.93-2.07l-7.71,3.14a.47.47,0,0,1-.61-.22l-1.79-4.39a.49.49,0,0,1,.25-.67l10.81-4.41-2.62-6.43-15.47,6.31a3.59,3.59,0,0,0-2.07,4.93Z"/><polygon class="cls-3" points="164.5 111.88 161.87 105.41 149.99 110.25 147.78 104.85 158.06 100.65 155.46 94.27 145.18 98.46 143.05 93.23 154.93 88.39 152.3 81.96 132.76 89.93 144.96 119.85 164.5 111.88"/><polygon class="cls-3" points="179.04 105.95 172.33 89.51 187.77 102.39 195.08 99.41 182.88 69.49 175.79 72.38 182.52 88.87 166.84 76.03 159.75 78.93 171.95 108.84 179.04 105.95"/><path class="cls-3" d="M219.68,89.38a6.61,6.61,0,0,0,3.58-8.59L216,63.06a6.6,6.6,0,0,0-8.55-3.6L191.39,66l12.2,29.92Zm-13.35-22a2.24,2.24,0,0,1,3.06,1.29l5.17,12.68a2.24,2.24,0,0,1-1.29,3.06l-4.61,1.88-6.94-17Z"/></g></g></svg>