<svg xmlns="http://www.w3.org/2000/svg" viewBox="0 0 437.26 200.08"><defs><style>.cls-1{fill:#333;}</style></defs><title>signature_1</title><g id="Layer_2" data-name="Layer 2"><g id="Layer_1-2" data-name="Layer 1"><path class="cls-1" d="M49.2,142Q24.47,158.61,1.45,177.56c-2.55,2.1.3,5.48,2.92,5A461.19,461.19,0,0,1,117.9,176.8c2.54.18,4-3.45,2.12-5.12-36-31.43-38.29-83-55.51-124.6-1.46-3.52-7.26-2-5.79,1.6,17.65,42.65,20.12,95,57.06,127.24l2.12-5.12a467.59,467.59,0,0,0-115.12,6l2.92,5q22.42-18.45,46.53-34.64c3.19-2.14.19-7.34-3-5.18Z" transform="translate(-0.46)"/><path class="cls-1" d="M113.14,179a205.83,205.83,0,0,0-8-81.75c-.94-3.07-6.34-2.7-5.89.8a122.63,122.63,0,0,0,45.93,81c2.06,1.6,6.2.24,5-2.92-6.68-17.77-28.83-26.3-45.74-30.9a120.76,120.76,0,0,0-61.78-.48c-6,1.57-15.77,5.39-15,13.26.84,8.87,13.6,9.75,20.25,9.4,23-1.21,46-8.81,68.23-14.44L198,132.21c3.28-.83,2.59-5.91-.8-5.89l-9.11,0c-3.86,0-3.87,6,0,6l9.11,0-.8-5.89C157.63,136.24,119,146.68,80,155.79c-9.69,2.27-19.57,4.48-29.49,5.4-4.57.42-9.65.67-14-1.21-6.87-3,1.71-7.74,5.26-8.79a111.84,111.84,0,0,1,52.8-2.12,113,113,0,0,1,28,9.37c8.68,4.27,18.16,9.75,21.74,19.27l5-2.92A116.87,116.87,0,0,1,105.28,98l-5.89.8A201.37,201.37,0,0,1,107.14,179c-.4,3.84,5.6,3.81,6,0Z" transform="translate(-0.46)"/><path class="cls-1" d="M132.94,185.42l12.4-77.05c.6-3.73-4.91-5.43-5.79-1.6-2.48,10.81-2.85,23,.93,33.6,2.39,6.69,9.73,13.87,16.59,7.78s9.48-18.34,11.13-27.06c2.06-10.83,3.15-21.84,7.12-32.21l-5.89-.8a423,423,0,0,0,2,65.28q1.66,15.21,4.4,30.29c1.2,6.58,2.93,14.4,10.33,16.33a3.05,3.05,0,0,0,3.39-1.38,37.33,37.33,0,0,0,3.87-11.06c.68-3.78-5.11-5.4-5.79-1.6a32.07,32.07,0,0,1-3.27,9.63l3.39-1.38c-3.81-1-4.75-5.31-5.49-8.7-1-4.58-1.69-9.25-2.42-13.87q-2.16-13.85-3.35-27.83a424,424,0,0,1-1-55.71c.17-3.6-4.76-3.77-5.89-.8-5.49,14.36-5.29,30-10.22,44.54-1.15,3.39-2.71,8.2-5.35,10.8-4.48,4.4-7.32-2.27-8.34-6a57.83,57.83,0,0,1-.29-28.29l-5.79-1.6-12.4,77.05c-.61,3.78,5.17,5.4,5.79,1.6Z" transform="translate(-0.46)"/><path class="cls-1" d="M193.22,98.06l-1.78,82.84c-.08,3.93,5.63,3.77,6,0l1.48-15c.38-3.84-5.62-3.81-6,0l-1.48,15h6l1.78-82.84c.08-3.86-5.92-3.86-6,0Z" transform="translate(-0.46)"/><path class="cls-1" d="M216.68,105.91a508,508,0,0,1-9.14,62.61c-.43,2,1.39,4.56,3.69,3.69l36.59-13.87a3,3,0,0,0,1.32-5,18.1,18.1,0,0,0-9.42-5.82c-3.74-1-5.33,4.81-1.6,5.79a12.51,12.51,0,0,1,6.77,4.28l1.32-5-36.59,13.87,3.69,3.69a521.12,521.12,0,0,0,9.35-64.21c.32-3.85-5.68-3.83-6,0Z" transform="translate(-0.46)"/><path class="cls-1" d="M185.36,145.24l41.48-16.5c6.46-2.57,13.56-4.64,19.72-7.85,3-1.57,5.29-5.25,2.3-8s-7.1,1.63-4.24,4.24l.61.56-.77-2.92c-.32,1.48-6,2.89-7.23,3.4l-7.37,2.93-15.67,6.23-30.42,12.1c-3.55,1.41-2,7.22,1.6,5.79Z" transform="translate(-0.46)"/><path class="cls-1" d="M193.07,111.44a511.24,511.24,0,0,1,97.83-32.8c3.76-.85,2.17-6.64-1.6-5.79A518.75,518.75,0,0,0,190,106.26c-3.51,1.59-.47,6.76,3,5.18Z" transform="translate(-0.46)"/><path class="cls-1" d="M259,171.95c10.28-47.85-11.47-99.73-52.86-125.87l-2.31,5.48L308.07,70c6.57,1.16,13.78,2,19.61,5.44,7.25,4.32,8.64,12,6.2,19.65-2.34,7.29-7.06,13.58-11.69,19.56q-8.22,10.62-16.46,21.21L269.14,183c-2.31,3,1.68,7.23,4.24,4.24,21.92-25.55,26.34-59.75,29.93-92l-5.89.8,23.1,73.45,4.41-3.39q-16.49-10.26-32.23-21.66-7.92-5.75-15.62-11.8c-2.18-1.71-5.09-3.42-6.88-5.53-3-3.6-1.43-5.78,2.39-7.48,11.25-5,24.75-7.25,36.8-9.48a286.77,286.77,0,0,1,40.45-4.46l-1.51-5.59a676.14,676.14,0,0,0-85.25,57.76c-2,1.55-.39,5.41,2.12,5.12A531.77,531.77,0,0,0,368.5,140.47c3-1,2.72-4.73,0-5.79-36.22-14-73.06-28.45-104.05-52.43l-2.12,5.12a221.5,221.5,0,0,1,123.56,25.88l.72-5.48c-17.89,7.2-36.64,3.82-54.69-.94s-35.73-10.69-54.45-11.26c-2.87-.09-4.23,4.28-1.51,5.59a578.55,578.55,0,0,0,143,47.38c7.11,1.35,19.84,3.6,18.72-7.85-.42-4.33-3.13-8.8-5.16-12.53a112.45,112.45,0,0,0-9.72-14.68C409.31,96,392,82.34,376.34,67c-17.72-17.35-34.65-38.43-36.49-64.13-.28-3.83-6.28-3.86-6,0C336.85,44.77,373,71,400.62,98A169.56,169.56,0,0,1,420.93,121a102.06,102.06,0,0,1,7.87,13c.88,1.76,2.89,4.46,2.74,6.43-.44,5.65-6.92,3.07-10.11,2.47a571.76,571.76,0,0,1-67.41-17A572.6,572.6,0,0,1,279,96l-1.51,5.59c36.79,1.12,74.06,26.76,110.73,12,2.22-.89,3.2-4.14.72-5.48a227.24,227.24,0,0,0-126.59-26.7c-2.25.19-4.39,3.37-2.12,5.12,31.88,24.67,69.43,39.52,106.7,54v-5.79A524,524,0,0,1,265.18,157l2.12,5.12a666.28,666.28,0,0,1,84-56.82c2.53-1.44,1.49-5.71-1.51-5.59a296.85,296.85,0,0,0-47.61,5.76q-12,2.47-23.8,6c-5,1.47-11.14,2.84-14.49,7.19-2.93,3.8-2.21,8.37,1,11.77,4.92,5.25,11.58,9.44,17.33,13.77q19.21,14.47,39.67,27.16a3,3,0,0,0,4.41-3.39L303.2,94.45c-1.07-3.39-5.53-2.48-5.89.8-3.39,30.48-7.43,63.59-28.17,87.76l4.24,4.24,36-46.35q9.15-11.79,18.29-23.57c4.42-5.72,8.62-11.66,11.24-18.46,5.28-13.7-.13-26.3-14-31.25-7.66-2.72-16.08-3.56-24-5l-29.52-5.22L205.37,45.77c-3.26-.58-5.32,3.58-2.31,5.48,39,24.65,59.81,73.95,50.11,119.1-.81,3.77,5,5.37,5.79,1.6Z" transform="translate(-0.46)"/></g></g></svg>