
      <?xml version="1.0" encoding="utf-8"?>
      <!-- Generator: Adobe Illustrator 21.1.0, SVG Export Plug-In . SVG Version: 6.00 Build 0)  -->
      <svg version="1.1" id="signature-layer" class="signature" xmlns="http://www.w3.org/2000/svg" xmlns:xlink="http://www.w3.org/1999/xlink" x="0px" y="0px"
      	 viewBox="0 0 464 219" style="enable-background:new 0 0 464 219;" xml:space="preserve">
      <g>
      	<g>
      		<path class="st0" d="M67.7,152.5C52.6,164.2,23.4,185,23.4,185c-1.8,1.3-1.5,2.1,0.7,1.8c0,0,30.4-3.9,50.2-4.8
      			c21.5-1,54.8,0.6,54.8,0.6c2.2,0.1,2.7-1,1-2.5c0,0-6.1-5.6-11.3-12.6c-9.4-12.7-13.2-24.5-15.3-30.9
      			C97.2,117,88.1,89.7,77.4,55.9"/>
      	</g>
      	<g>
      		<path class="st0" d="M126.5,189.6c3.1-18.3,1.4-34.1,0.6-43c-0.1-1.4-0.8-7.8-2.5-16.2c-2.2-11-5.7-22.7-6.6-22.5
      			c-0.8,0.2-0.9,10.3,1.8,17.2c15.1,38.9,42.6,63.9,44.9,62.2c1-0.8-5.3-8.9-9.9-14.1c-7.8-8.8-17.9-11.4-33.7-15.5
      			c-14.2-3.7-24.8-4.3-28.3-4.4c-4.2-0.2-10.2,0.2-22.1,1c-5,0.3-13.2,0.9-21.1,5.4c-1.8,1-3.7,2.3-4.2,4.4
      			c-0.7,3.6,2.1,8.8,22.9,8.5c12.5-0.2,25-3,37.1-6.3c0,0,18.3-5.1,39.8-10.6c12.5-3.2,14.7-3.6,29.8-7.4
      			c16.4-4.1,29.5-7.6,37.8-9.8"/>
      	</g>
      	<g>
      		<path class="st0" d="M145.7,192.8c4.1-25.5,11.8-72.6,11.8-72.6c0.4-2.2,0.6-2.1,0.5,0.1c0,0-0.3,11.7,0.8,21.5
      			c0.2,1.9,0.9,7.4,4.8,12.2c2.1,2.6,3.5,2.9,4.2,3c3.1,0.2,5.7-3.7,7-5.8c4.6-7.4,5.1-15,5.1-15.6c1.1-18.2,7.5-38.3,8.5-38.2
      			c1.1,0.1-2.5,23.6,0.5,54.7c2.1,21.4,3.6,26.8,3.6,26.8c0.6,2.1,1.3,5.6,1.6,7.8c0,0,2,13.8,7.6,19.5c0.7,0.7,4.5-4.3,4.4-10.1"/>
      	</g>
      	<g>
      		<path class="st0" d="M212.7,105c-0.5,23.4-1,46.8-1.6,70.2c-0.1,5.5-0.3,12.5-0.3,12.5c0,2.2,0.3,2.2,0.7,0.1
      			c0,0,1.5-6.9,2.6-12.2"/>
      	</g>
      	<g>
      		<path class="st0" d="M235.4,114.2c-0.8,12.2-2.1,25.3-4.2,39.1c-1.3,8.7-3.7,21.2-3.7,21.2c-0.4,2.2,0.9,3.3,3,2.5l29.7-11.2
      			c2.1-0.8,2.2-2.4,0.4-3.5c0,0-2.8-1.7-5.9-3.7"/>
      	</g>
      	<g>
      		<path class="st0" d="M200.1,150.7c20.5-8,57.8-22.7,57.8-22.7c2-0.8,4.4-2.4,5.3-3.5c0,0,0,0,0.8-1"/>
      	</g>
      	<g>
      		<path class="st0" d="M207.8,117.8c15.7-6.2,32.4-13.8,50.8-20.6c16.8-6.2,32.5-9.6,47.9-13.1"/>
      	</g>
      	<g>
      		<path class="st0" d="M269.6,179.2c3.1-10.3,6.3-26.5,3.2-45.5c-0.4-2.7-2.3-13.4-8.2-26.2c-7.5-16.5-17.2-26.8-22.2-32.1
      			c-7.4-7.7-17.8-15.5-17.8-15.5c-1.8-1.3-1.4-2,0.7-1.6c0,0,109,20.7,113.9,21.2c0.4,0,2.2,0.2,4.4,1c4.1,1.6,6.5,4.4,7.3,5.5
      			c0,0,2.9,3.8,3.7,9.2c1.6,11.5-9.6,25.1-10.3,25.9c-11.7,14.1-31,39.6-56.7,72.9c5.8-8.2,12.4-19.1,17.7-32.7
      			c8.9-22.7,10.6-43.1,10.6-56.7c8,24.5,22.7,69.7,22.7,69.7c0.7,2.1-0.2,2.7-2,1.5l-50.4-36.6c-1.8-1.3-3.6-2.6-4-2.8
      			c-0.4-0.2-1.3-3.4-1.1-5.6c0,0,0.1-1,0.3-1.4c1.4-2.5,4.3-3.4,5.4-3.7c33.5-10.1,54-12,54-12c11-1,19.8-1.8,24.6-2.2
      			c-27.7,18.8-79.7,54.2-79.7,54.2c-1.8,1.2-1.5,2,0.7,1.8l37.7-5.3c2.2-0.4,5.7-1.1,7.8-1.6c0,0,20.3-4.5,22.7-5.2
      			c11.4-3.1,21.1-6.3,28.7-9.1c-12.5-4.7-34.8-13.9-34.8-13.9c-2-0.8-5.3-2.2-7.4-3.1c0,0-30.7-13.5-46.6-21.2
      			c6.8,0.4,25.2,3.2,25.2,3.2c2.2,0.3,5.7,1.1,7.8,1.8c0,0,21.5,6.8,35,8.9c9.2,1.5,22.8,2.1,40.1-2.2
      			c-14.7-8.7-34.3-15.9-34.3-15.9c-2.1-0.8-5.5-1.8-7.6-2.4c0,0-20.7-5.4-27.1-6.5c-12.2-2.1-17.3-1.5-35.9-3.4
      			c-10.7-1.1-19.4-2.3-24.9-3.2c29.9,20.1,119.5,55.4,119.5,55.4c2,0.8,5.5,1.9,7.6,2.4c0,0,31.6,7.5,47.6,9.7c1-0.3,1-0.3,1-0.3
      			c1.2-1,2.4-3.6,2.6-5.8c0,0,0.2-1.9-1.1-4.9c-7.1-16.4-21.7-30.6-21.7-30.6c-10.5-10.2-16.6-15.9-22.4-21.5
      			c-13.7-13.1-20.6-19.8-27-27.4c-8.8-10.4-15.1-18-19.9-29.8c-4.1-10.1-5.4-19.2-5.9-25.2"/>
      	</g>
      </g>
      </svg>
