<svg xmlns="http://www.w3.org/2000/svg" viewBox="0 0 36.72 70.49"><defs><style>.cls-1{fill:#6c9;}</style></defs><title>facebookmdpi</title><g id="Layer_2" data-name="Layer 2"><g id="Footer"><polygon class="cls-1" points="36.72 1.01 36.72 0 35.72 0 36.72 1.01"/><path class="cls-1" d="M11.38,70.49V66.11l3.78,3.78-.6.6h7.1l-.6-.6L24,67V62.52l-2.7-2.7,2.7-2.7v-5l-2.7-2.7,2.7-2.7v-5l-2.66-2.66,3.78-3.78v2.85h2.13V35.33l2.85,2.85h4.71l.13-1v-7l.79.79,0-.25L36,28.49l.29-2.3L35,27.51v-2H32.89v2l-2-2H27.85L31,28.74l-3.78,3.78v-7H25.12v7l-3.78-3.78,3.18-3.18H24V21.34l-2.8-2.8,2.8-2.8v-.42a3.73,3.73,0,0,1,3.11-3.67V4.38l3.78,3.78-3.45,3.45h.28v0h3.19l2-2v2H35v-2l1.7,1.7V4.95L34.91,6.76V0H32.78V6.76L29,3l3-3H29.2L27.33,1.87V0H27c-.61,0-1.2,0-1.77.06V1.87L23.57.24A18.28,18.28,0,0,0,21,.8L23.2,3,19.42,6.76V1.38A13.91,13.91,0,0,0,17.29,2.5V6.76L15,4.42a12.86,12.86,0,0,0-1.5,1.91l1.83,1.83-3.78,3.78V11q-.06.27-.12.55A20.51,20.51,0,0,0,11,15.63v9.93H9.52v7.16L5.74,28.94l3.38-3.38H5.71l-2,2v-2H1.61v2L0,25.92v5.62L1.5,30v7.57L0,36.11v2.07H6.57l3-3v3H11V70.49ZM32.82,30.14v7.57L29,33.93ZM25,4.38v7.57L21.2,8.17ZM19.42,9.57l3.78,3.78-3.78,3.78ZM19.34,20l3.78,3.78-3.78,3.78Zm0,10.17,3.78,3.78-3.78,3.78Zm0,10.27,3.78,3.78L19.34,48Zm0,10.43,3.78,3.78-3.78,3.78Zm0,10.07,3.78,3.78-3.78,3.78Zm-2.13,7.57-3.78-3.78,3.78-3.78Zm0-10.07-3.78-3.78,3.78-3.78Zm0-10.43L13.43,44.2l3.78-3.78Zm0-10.27-3.78-3.78,3.78-3.78Zm0-10.17-3.78-3.78L17.21,20Zm.08-18v7.57l-3.78-3.78Zm-5.64,5.21,3.78,3.78-3.78,3.78Zm0,10.37,3.78,3.78-3.78,3.78Zm0,10.07L15.43,39,11.65,42.8Zm0,10.37,3.78,3.78-3.78,3.78ZM11.42,56l3.78,3.78L11.42,63.6ZM3.63,37.61V30l3.78,3.78Z"/></g></g></svg>