<svg xmlns="http://www.w3.org/2000/svg" viewBox="0 0 75.18 74.89"><defs><style>.cls-1{fill:#6c9;}</style></defs><title>instagrammdpi</title><g id="Layer_2" data-name="Layer 2"><g id="Footer"><path class="cls-1" d="M45.68,36.17v-1.4a8.52,8.52,0,0,0-1.93-3.21v4.61L40.3,32.73l2.22-2.22a8.49,8.49,0,0,0-1.9-1l-2.15,2.15V29a8.42,8.42,0,0,0-1.93,0v2.64l-2.1-2.1a8.5,8.5,0,0,0-1.87,1l2.35,2.35-3.44,3.44V31.51a8.52,8.52,0,0,0-1.93,3.13v1.71L29.19,36a8.45,8.45,0,0,0,0,3l.33-.33v1.61a8.52,8.52,0,0,0,1.93,3.13V38.63l3.44,3.44-2.29,2.29a8.5,8.5,0,0,0,1.88,1l2-2V45.9a8.41,8.41,0,0,0,1.93,0V43.35l2.08,2.08a8.5,8.5,0,0,0,2-1L40.3,42.17l3.44-3.44v4.61a8.52,8.52,0,0,0,1.93-3.21v-1.4L46,39a8.46,8.46,0,0,0,0-3.13Zm-9.13,4.72L33.1,37.45,36.54,34Zm1.93,0V34l3.44,3.44Z"/><path class="cls-1" d="M50.9,27.88a16.32,16.32,0,0,1,1.93,3.48V25.55a3.5,3.5,0,0,1-1.93-.71Z"/><path class="cls-1" d="M49.43,14.71H48.28l-2.73,2.73V14.71H43.62v2.73l-2.73-2.73h-6.8l-2.73,2.73V14.71H29.42v2.73l-2.73-2.73h-.85a10.06,10.06,0,0,0-3.58.66v6.82L18.8,18.74l3.33-3.33a10.08,10.08,0,0,0-6.39,9.38V50.1h-.08a10.09,10.09,0,0,0,6.42,9.39l-3.2-3.2,3.44-3.44v6.74a10.06,10.06,0,0,0,3.42.6h1l2.61-2.61v2.61h1.93V57.57l2.61,2.61h7.22l2.61-2.61v2.61h1.93V57.57l2.61,2.61h1.18a9.69,9.69,0,0,0,3.21-.55V52.85l3.44,3.44-3.28,3.28a10.41,10.41,0,0,0,6.71-9.7V24.79A10.08,10.08,0,0,0,49.43,14.71Zm-25.25.59,3.44,3.44-3.44,3.44Zm-7,4.72,3.44,3.44-3.44,3.44Zm0,9.17,3.44,3.44-3.44,3.44Zm0,9.44,3.44,3.44-3.44,3.44ZM17.08,55V48.07l3.44,3.44Zm7.19,4.78V52.85l3.44,3.44Zm26.44,0L47.26,56.3l3.44-3.44ZM57.81,55l-3.44-3.44,3.44-3.44Zm0-9.44-3.44-3.44,3.44-3.44Zm0-9.41-3.44-3.44,3.44-3.44Zm0-9.29-2.39-2.39a3.51,3.51,0,0,1-1.93,1l2.7,2.7-3.36,3.36a16.25,16.25,0,0,1,.94,3.58l2.35,2.35L53.78,39.8a16.23,16.23,0,0,1-1,3.81L56,46.85,52.54,50.3V44.08a16.34,16.34,0,0,1-1.93,3.27v3l-1.37-1.37a16.45,16.45,0,0,1-1.48,1.32l1.32,1.32L45.64,55V51.68a16.28,16.28,0,0,1-1.93.93V55l-1.8-1.8a16.29,16.29,0,0,1-2.61.49l2.58,2.58-3.44,3.44v-6l-.85,0c-.36,0-.73,0-1.09,0v6L33.06,56.3l2.61-2.61a16.27,16.27,0,0,1-2.44-.48L31.48,55V52.62a16.3,16.3,0,0,1-1.93-.93V55L26.1,51.52l1.29-1.29a16.46,16.46,0,0,1-1.62-1.48l-1.49,1.49v-3.3a16.32,16.32,0,0,1-1.93-3.57v6.87L18.9,46.8l3.44-3.44A16.22,16.22,0,0,1,21.43,40L18.8,37.36l2.67-2.67a16.25,16.25,0,0,1,.84-3.09L18.9,28.18l3.44-3.44v6.78a16.32,16.32,0,0,1,1.93-3.57v-3.2l1.45,1.45a16.46,16.46,0,0,1,1.61-1.49L26.1,23.46,29.54,20V23.2a16.29,16.29,0,0,1,1.93-.93V20l1.68,1.68a16.27,16.27,0,0,1,2.5-.5l-2.48-2.48,3.44-3.44v5.84c.32,0,.65,0,1,0s.64,0,1,0V15.27L42,18.72,39.51,21.2a16.28,16.28,0,0,1,2.43.47L43.62,20v2.24a16.26,16.26,0,0,1,1.93.92V20L49,23.44l-1.21,1.21a16.44,16.44,0,0,1,1.62,1.48l1.38-1.38a3.52,3.52,0,0,1-1.19-3.83l-2.21-2.21,3.44-3.44v3.91a3.5,3.5,0,0,1,1.93-.71v-3.2l3.44,3.44-.76.76a3.51,3.51,0,0,1,1,1.91l1.4-1.4Z"/><path class="cls-1" d="M75.17,17.73A16.91,16.91,0,0,0,57.37,0H18A17.1,17.1,0,0,0,0,17.75V57.29A17,17,0,0,0,17.9,74.86H57.26A16.88,16.88,0,0,0,75.17,57.27Zm-6.39,5.71L72.22,20v6.89ZM70.4,28,67,31.45V24.56ZM67,22.16V15.27l3.44,3.44ZM68.78,14l3.44-3.44v6.89ZM66.86,5.83,70.3,9.28l-3.44,3.44ZM70.4,37.45,67,40.89V34Zm-3.66,6,3.44,3.44L66.74,50.3Zm.1,9.44,3.44,3.44-3.44,3.44Zm-7-51.74L63.3,4.56,59.85,8Zm5.07,4.72v6.89L61.48,9.28Zm-7-4.72V8L54.47,4.56Zm-12.17.27,3.44,3.44L45.75,8.27Zm-1.93,0V8.27L40.37,4.83ZM31.38,1.14l3.44,3.44L31.38,8Zm-1.93,0V8L26,4.58Zm-12.27,0,3.44,3.44L17.17,8Zm-1.93,0V8L11.79,4.58ZM10,5.86,13.42,9.3,10,12.75ZM3.07,36.35V29.46l3.44,3.44Zm5-2.44V40.8L4.6,37.36ZM4.6,18.74,8,15.3v6.89Zm1.92,4.72L3.07,26.91V20ZM8,5.86v6.89L4.59,9.3ZM3,10.58,6.42,14,3,17.47Zm-.1,28.06,3.44,3.44L2.87,45.52Zm0,9.44,3.44,3.44L2.87,55Zm.2,9.54,3.44,3.44L3.07,64.5ZM8.14,69.22,4.7,65.78l3.44-3.44Zm0-9.54L4.7,56.24,8.14,52.8Zm0-9.44L4.7,46.8l3.44-3.44Zm0-18.61L4.7,28.19l3.44-3.44Zm7,42.15L11.7,70.34l3.44-3.44Zm-5.07-4.56V62.33l3.44,3.44Zm7,4.56V66.89l3.44,3.44Zm12.23-.15-3.44-3.44,3.44-3.44Zm1.93,0V66.74l3.44,3.44Zm12.27,0-3.44-3.44,3.44-3.44Zm1.93,0V66.74l3.44,3.44Zm12.37,0-3.44-3.44,3.44-3.44Zm1.93,0V66.74l3.44,3.44Zm5.07-4.72-3.44-3.44L64.81,62ZM65.87,50a16.28,16.28,0,0,1-1,5.53v4.22l-1.36-1.36A16.56,16.56,0,0,1,62.44,60l.74.74-3.44,3.44V62.76a16.52,16.52,0,0,1-1.93,1.35v.08l-.05-.05a16.41,16.41,0,0,1-2.07,1l.3.3-3.44,3.44V66.12a16.3,16.3,0,0,1-1.93.25v2.54l-2.5-2.5H40.93l-2.5,2.5v-2.5H36.5v2.5L34,66.42H27l-2.77,2.77V66.35a16.28,16.28,0,0,1-1.93-.29v3.13l-3.44-3.44.58-.58a16.42,16.42,0,0,1-2.06-1l-.34.34v-.54a16.59,16.59,0,0,1-1.93-1.42v2L11.69,61l1-1a16.58,16.58,0,0,1-1.18-1.76l-1.46,1.46V54.95a16.29,16.29,0,0,1-.77-5V24.91A16.3,16.3,0,0,1,10,20.28v-5l1.49,1.49a16.54,16.54,0,0,1,1.24-1.86L11.8,14l3.44-3.44v1.71a16.6,16.6,0,0,1,1.93-1.39v-.32l.2.2a16.41,16.41,0,0,1,2.06-1L19,9.3l3.44-3.44v3a16.32,16.32,0,0,1,1.93-.27V5.86L27,8.47h7l2.64-2.64V8.47h1.93V5.83l2.64,2.64h6.88l2.64-2.64v2.7a16.3,16.3,0,0,1,1.93.26v-3L56.1,9.28l-.43.43a16.39,16.39,0,0,1,2.07,1l.19-.19v.29a16.53,16.53,0,0,1,1.93,1.37V10.55L63.3,14l-.87.87a16.55,16.55,0,0,1,1.21,1.79L65,15.27V19.7a16.29,16.29,0,0,1,.85,5.2Zm.87,18.93V62l3.44,3.44Zm5.36-4.45L68.66,61l3.44-3.44Zm0-9.44-3.44-3.44,3.44-3.44Zm.11-9.5-3.44-3.44,3.44-3.44Zm.08-9.35-3.44-3.44,3.44-3.44Z"/></g></g></svg>