<svg xmlns="http://www.w3.org/2000/svg" viewBox="0 0 87.91 72.61"><defs><style>.cls-1{fill:#6c9;}</style></defs><title>Asset 1mdpi</title><g id="Layer_2" data-name="Layer 2"><g id="Footer"><path class="cls-1" d="M3,66.61c.73.39,1.48.76,2.24,1.11V64.5c-.74.09-1.49.16-2.24.22Z"/><path class="cls-1" d="M1.47,65.75l1-1c-.82.06-1.63.1-2.46.11Q.73,65.32,1.47,65.75Z"/><path class="cls-1" d="M84.3,2.23V4.14a24.51,24.51,0,0,0,1.61-3C85.4,1.5,84.85,1.87,84.3,2.23Z"/><path class="cls-1" d="M84.3,12.95a24.54,24.54,0,0,0,3.61-5.34A24.38,24.38,0,0,1,81.61,10l-3.4,3.4v-8L81,8.29a24.77,24.77,0,0,0,1.68-1.91L80.54,4.21a24.36,24.36,0,0,1-3.67,1.2l-.69.16-.21,0v7.83l-4-4,3.81-3.81c-.69.14-1.39.25-2.11.33-.27-.3-.55-.58-.83-.86L70,8V2.85a18.08,18.08,0,0,0-2.24-1.22V8l-4-4L66.6,1.15A18,18,0,0,0,63.91.38L61.78,2.51V.07c-.51,0-1-.07-1.54-.07h-.7V2.51L57.28.25c-.49.08-1,.18-1.45.29l-.29.08c-.38.1-.76.22-1.13.35l3,3-4,4V1.32c-.31.12-.61.25-.91.39-.45.21-.89.45-1.33.7V8L48,4.76a18.2,18.2,0,0,0-1.5,1.54l-.16.19,2.82,2.82-4,4V8c-.23.35-.46.7-.67,1.07l-.07.12a18,18,0,0,0-2.31,7.84l.82-.82v8L41,22.27c-.78,0-1.55,0-2.31-.1L37.22,22l3.67,3.67-4,4V22a44.5,44.5,0,0,1-5.21-.9l-3.12,3.12v-4q-1.13-.35-2.24-.77v4.74l-4-4L24,18.56q-1.13-.49-2.22-1L20.35,19V16.74q-1.14-.63-2.24-1.32V19l-4-4,1.36-1.36q-1.09-.8-2.13-1.67L12,13.29V10.8l-.27-.24q-1-.93-2-1.92v4.66l-4-4L8.2,6.9a44.72,44.72,0,0,1-3.09-4,18,18,0,0,0-2.66,9.34,17.6,17.6,0,0,0,1.49,7.08,21.47,21.47,0,0,0,6.48,8.21l-.64-.07v7.16l-4-4,3.26-3.26A49.28,49.28,0,0,1,2.45,26v.07A17.7,17.7,0,0,0,8.22,38.82l1.57-1.57v3A25.32,25.32,0,0,0,12,41.83V37.25l4,4-2.59,1.43c.77.43,1.58.84,2.41,1.21a49.93,49.93,0,0,1-6.71.47c.76,4.9,5.11,9.08,11.23,11.33V53.11L24,56.72c.59.13,1.19.24,1.8.34a48.89,48.89,0,0,1-9.89,4.89l.61.61-4,4V63c-.74.21-1.48.4-2.24.58v2.93L7.82,64.1c-.76.14-1.52.26-2.29.36l3.72,3.72-.88.88a51,51,0,0,0,9.27,2.66l-3.5-3.5,4-4v7.58c.74.13,1.49.24,2.24.34V64.24l4,4L20.4,72.16c1.08.14,2.16.25,3.26.33l2.79-2.79v2.9h.7l1.54,0V69.7l2.73,2.73q1.57-.13,3.12-.35l-3.86-3.86,4-4v7.82q1.13-.16,2.24-.38V64.24l4,4-3.33,3.33a51.06,51.06,0,0,0,9.59-3l-.07-.07,4-4v2.2q1.14-.6,2.24-1.25v-.95l.59.59q1.23-.75,2.4-1.56l-.67-.67,4-4v2.17A51.73,51.73,0,0,0,69.88,49.81V42.92l2.59,2.59a51.14,51.14,0,0,0,6-21.6l-.31.31v-8l1,1q1-.67,2-1.44l-.94-.94.07-.07-.07-.07,4-4v2.17ZM4.81,11l4,4-4,4Zm5,13.43-4-4,4-4Zm2.24-8,4,4-4,4Zm0,10.19,4,4-4,4Zm6.09,24-4-4,4-4Zm0-10.92-4-4,4-4Zm0-9.87-4-4,4-4Zm2.24-8,4,4-4,4Zm0,9.87,4,4-4,4Zm0,10.92,4,4-4,4Zm6,24-4-4,4-4Zm0-10.4-4-4,4-4Zm0-10.4-4-4,4-4Zm0-10.8-4-4,4-4Zm2.24-8,4,4-4,4Zm0,10.8,4,4-4,4Zm0,10.4,4,4-4,4Zm0,18.37v-8l4,4Zm6.09-5.46-4-4,4-4Zm0-9.87-4-4,4-4Zm0-10.92-4-4,4-4Zm0-10.8-4-4,4-4Zm2.24,2.83,4,4-4,4Zm0,10.92,4,4-4,4Zm0,9.87,4,4-4,4Zm5.94,13.43-4-4,4-4Zm0-10.4-4-4,4-4Zm0-10.6-4-4,4-4Zm0-10.92-4-4,4-4Zm2.3-18.58,4,4-4,4Zm-.06,10.61,4,4-4,4Zm0,10.92,4,4-4,4Zm0,10.6,4,4-4,4Zm0,18.37v-8l4,4Zm6.13-5.46-4-4,4-4Zm0-10.4-4-4,4-4Zm0-10.6-4-4,4-4Zm0-10.61-4-4,4-4Zm0-10.92-4-4,4-4ZM59.43,5.46v8l-4-4Zm-6,5.32,4,4-4,4Zm0,10.92,4,4-4,4Zm6,5.46v8l-4-4Zm-6,5.15,4,4-4,4Zm0,10.6,4,4-4,4Zm0,18.37v-8l4,4Zm6.09-4.93-4-4,4-4Zm0-10.92-4-4,4-4Zm0-21.21-4-4,4-4ZM61.66,5.46l4,4-4,4Zm.11,10.78,4,4-4,4Zm-.11,10.92,4,4-4,4Zm.11,10.28,4,4-4,4Zm0,18.89v-8l4,4Zm5.86-5.46-4-4,4-4Zm.11-10.28-4-4,4-4Zm0-10.92-4-4,4-4Zm0-10.78-4-4,4-4Zm2.24-8,4,4-4,4Zm0,10.78,4,4-4,4ZM70,40.6v-8l4,4Zm6-5.45-4-4,4-4Zm0-10.94-4-4,4-4Z"/></g></g></svg>